<?xml version="1.0" standalone="no"?>
<!DOCTYPE svg PUBLIC "-//W3C//DTD SVG 1.1//EN" "http://www.w3.org/Graphics/SVG/1.1/DTD/svg11.dtd">
<svg version="1.1" xmlns="http://www.w3.org/2000/svg" viewBox="0 0 539 795.1180555555557" width="539" height="795.1180555555557"><!-- svg-source:excalidraw --><metadata></metadata><defs><style class="style-fonts">
      </style></defs><rect x="0" y="0" width="539" height="795.1180555555557" fill="#ffffff"></rect><g transform="translate(164 341.11805555555566) rotate(0 26.5 16)" stroke="none"><path fill="#e03131" d="M 2.00,-1.60 Q 2.00,-1.60 3.08,-0.11 4.16,1.37 4.94,2.21 5.71,3.05 6.73,3.86 7.76,4.68 8.62,5.37 9.48,6.07 10.77,7.17 12.05,8.27 13.15,9.25 14.24,10.23 15.66,11.13 17.07,12.04 18.23,13.04 19.39,14.05 20.77,15.32 22.15,16.58 23.67,17.18 25.20,17.79 26.70,18.75 28.19,19.71 29.18,20.19 30.17,20.67 31.17,21.16 32.17,21.65 33.18,22.14 34.19,22.63 35.19,23.12 36.20,23.61 37.26,24.49 38.32,25.37 39.79,25.98 41.27,26.58 42.78,26.50 44.29,26.43 46.15,26.94 48.00,27.46 50.69,27.94 53.38,28.42 53.94,28.58 54.50,28.73 54.98,29.06 55.46,29.38 55.82,29.84 56.17,30.31 56.35,30.86 56.54,31.41 56.54,31.99 56.54,32.57 56.36,33.12 56.17,33.67 55.82,34.14 55.47,34.60 54.99,34.93 54.51,35.25 53.95,35.41 53.39,35.57 52.81,35.54 52.23,35.51 51.69,35.29 51.15,35.08 50.70,34.70 50.26,34.33 49.96,33.83 49.66,33.33 49.53,32.76 49.41,32.19 49.47,31.62 49.53,31.04 49.77,30.51 50.02,29.98 50.42,29.56 50.82,29.14 51.33,28.86 51.84,28.59 52.42,28.50 52.99,28.40 53.56,28.49 54.14,28.59 54.65,28.86 55.17,29.13 55.57,29.55 55.97,29.97 56.21,30.50 56.46,31.03 56.52,31.61 56.58,32.19 56.46,32.75 56.34,33.32 56.04,33.82 55.74,34.32 55.29,34.70 54.85,35.07 54.31,35.29 53.77,35.50 53.19,35.54 52.61,35.57 52.61,35.57 52.61,35.57 50.76,35.03 48.90,34.48 47.65,34.38 46.41,34.29 45.32,33.92 44.22,33.55 43.14,33.52 42.07,33.50 40.66,33.33 39.25,33.16 38.22,32.64 37.19,32.11 36.15,31.57 35.11,31.02 33.66,30.04 32.22,29.07 31.22,28.56 30.22,28.04 29.22,27.53 28.22,27.02 27.21,26.50 26.20,25.97 25.13,25.41 24.06,24.84 22.70,24.00 21.34,23.16 20.36,22.61 19.37,22.06 18.54,21.19 17.71,20.32 16.42,19.42 15.12,18.52 14.28,17.68 13.44,16.84 12.35,16.09 11.27,15.35 10.27,14.28 9.28,13.21 8.28,12.13 7.29,11.04 6.00,9.76 4.71,8.48 3.35,7.38 1.99,6.28 1.21,5.32 0.43,4.37 -0.78,2.98 -2.00,1.60 -2.16,1.33 -2.32,1.07 -2.42,0.78 -2.51,0.48 -2.54,0.17 -2.56,-0.12 -2.50,-0.43 -2.45,-0.73 -2.33,-1.02 -2.20,-1.30 -2.02,-1.55 -1.83,-1.79 -1.59,-1.98 -1.34,-2.18 -1.06,-2.31 -0.78,-2.44 -0.48,-2.50 -0.18,-2.55 0.12,-2.54 0.43,-2.52 0.73,-2.43 1.02,-2.35 1.29,-2.19 1.56,-2.03 1.78,-1.81 2.00,-1.60 2.00,-1.60 L 2.00,-1.60 Z"></path></g><g transform="translate(223 371.11805555555566) rotate(0 27 -24)" stroke="none"><path fill="#e03131" d="M -1.19,-2.38 Q -1.19,-2.38 -0.04,-2.96 1.10,-3.53 2.70,-4.59 4.30,-5.65 5.42,-6.25 6.54,-6.85 8.31,-7.73 10.08,-8.61 11.19,-9.16 12.29,-9.71 13.21,-10.69 14.14,-11.66 15.64,-12.71 17.14,-13.77 18.19,-14.35 19.24,-14.92 20.24,-15.45 21.24,-15.97 22.64,-16.94 24.04,-17.90 25.53,-18.91 27.01,-19.92 28.09,-20.48 29.18,-21.04 30.05,-21.89 30.93,-22.74 32.49,-23.87 34.04,-25.00 35.32,-25.84 36.59,-26.67 37.57,-27.65 38.54,-28.62 39.53,-29.62 40.53,-30.63 41.10,-31.62 41.67,-32.61 43.01,-34.03 44.35,-35.45 44.93,-36.88 45.51,-38.32 46.01,-39.30 46.50,-40.28 47.00,-41.28 47.50,-42.27 48.37,-43.80 49.23,-45.33 49.90,-47.27 50.57,-49.21 50.86,-49.72 51.14,-50.24 51.57,-50.64 52.00,-51.03 52.54,-51.27 53.08,-51.51 53.66,-51.56 54.25,-51.62 54.82,-51.48 55.39,-51.35 55.89,-51.04 56.39,-50.73 56.76,-50.27 57.14,-49.82 57.35,-49.27 57.55,-48.72 57.58,-48.13 57.60,-47.54 57.43,-46.98 57.27,-46.42 56.93,-45.94 56.59,-45.46 56.12,-45.11 55.64,-44.76 55.08,-44.58 54.53,-44.40 53.94,-44.41 53.35,-44.42 52.80,-44.62 52.24,-44.81 51.78,-45.18 51.32,-45.54 51.00,-46.03 50.67,-46.52 50.53,-47.09 50.38,-47.66 50.42,-48.25 50.46,-48.83 50.69,-49.38 50.91,-49.92 51.30,-50.36 51.69,-50.80 52.20,-51.10 52.71,-51.39 53.28,-51.51 53.86,-51.62 54.44,-51.55 55.02,-51.48 55.55,-51.22 56.08,-50.97 56.50,-50.56 56.92,-50.15 57.19,-49.62 57.46,-49.10 57.54,-48.52 57.63,-47.94 57.52,-47.36 57.42,-46.78 57.42,-46.78 57.42,-46.78 56.83,-45.51 56.25,-44.24 55.72,-43.21 55.19,-42.18 54.71,-41.21 54.23,-40.23 53.72,-39.20 53.21,-38.17 52.71,-37.17 52.21,-36.17 51.70,-35.16 51.20,-34.15 50.77,-33.16 50.35,-32.17 49.53,-31.37 48.72,-30.57 47.88,-29.28 47.05,-27.99 46.27,-27.21 45.49,-26.43 44.69,-25.61 43.88,-24.80 42.82,-23.74 41.77,-22.69 40.69,-21.69 39.60,-20.69 38.52,-20.07 37.44,-19.46 36.55,-18.56 35.67,-17.66 34.44,-16.64 33.21,-15.62 32.22,-15.13 31.24,-14.65 29.76,-13.67 28.28,-12.70 26.74,-11.70 25.21,-10.71 24.19,-10.22 23.17,-9.73 21.67,-9.14 20.18,-8.54 19.27,-7.74 18.36,-6.93 17.17,-5.91 15.97,-4.89 14.78,-4.35 13.58,-3.82 12.29,-3.41 10.99,-3.01 9.45,-1.99 7.91,-0.98 6.65,-0.47 5.39,0.04 4.44,0.63 3.49,1.23 2.34,1.81 1.19,2.38 0.88,2.49 0.58,2.59 0.26,2.63 -0.05,2.66 -0.37,2.61 -0.68,2.57 -0.98,2.45 -1.28,2.33 -1.54,2.14 -1.80,1.95 -2.01,1.71 -2.22,1.47 -2.36,1.18 -2.51,0.89 -2.58,0.58 -2.65,0.26 -2.64,-0.05 -2.63,-0.37 -2.55,-0.68 -2.47,-0.99 -2.31,-1.27 -2.16,-1.55 -1.94,-1.79 -1.72,-2.02 -1.45,-2.20 -1.19,-2.38 -1.19,-2.38 L -1.19,-2.38 Z"></path></g><g transform="translate(151 361.11805555555566) rotate(0 28 16.5)" stroke="none"><path fill="#e03131" d="M 1.34,-2.23 Q 1.34,-2.23 2.75,-1.32 4.16,-0.41 5.17,0.26 6.18,0.95 7.89,2.01 9.60,3.07 10.93,3.96 12.26,4.85 13.74,5.80 15.23,6.75 16.69,7.88 18.15,9.01 19.55,9.94 20.95,10.86 22.16,11.93 23.36,12.99 24.70,13.89 26.03,14.80 27.25,15.68 28.46,16.56 29.40,17.12 30.35,17.69 31.31,18.17 32.27,18.66 33.18,19.21 34.10,19.75 35.11,20.24 36.12,20.72 37.13,21.20 38.14,21.69 39.15,22.18 40.16,22.66 41.17,23.15 42.18,23.64 43.70,24.48 45.22,25.32 46.27,25.85 47.32,26.37 48.33,26.87 49.35,27.36 50.82,27.95 52.29,28.54 53.28,29.04 54.26,29.53 55.22,29.47 56.19,29.42 56.75,29.54 57.32,29.66 57.82,29.96 58.31,30.26 58.69,30.70 59.07,31.15 59.28,31.68 59.50,32.22 59.53,32.80 59.56,33.38 59.40,33.94 59.25,34.50 58.92,34.98 58.60,35.46 58.14,35.81 57.67,36.16 57.13,36.35 56.58,36.53 56.00,36.53 55.42,36.53 54.87,36.35 54.32,36.16 53.86,35.81 53.39,35.46 53.07,34.98 52.74,34.50 52.59,33.94 52.43,33.38 52.46,32.80 52.49,32.23 52.71,31.69 52.92,31.15 53.30,30.71 53.67,30.26 54.17,29.96 54.67,29.67 55.23,29.54 55.80,29.42 56.38,29.48 56.95,29.54 57.48,29.78 58.01,30.03 58.43,30.43 58.85,30.83 59.12,31.34 59.39,31.85 59.49,32.42 59.58,32.99 59.49,33.57 59.39,34.14 59.12,34.65 58.85,35.16 58.43,35.56 58.01,35.96 57.48,36.20 56.95,36.45 56.38,36.51 55.80,36.57 55.80,36.57 55.80,36.57 52.99,35.87 50.18,35.18 49.19,34.67 48.19,34.17 47.19,33.65 46.20,33.13 45.23,32.63 44.27,32.13 43.28,31.61 42.29,31.09 41.28,30.59 40.28,30.08 39.25,29.55 38.23,29.03 37.23,28.52 36.24,28.00 35.24,27.49 34.24,26.97 33.25,26.45 32.25,25.93 31.23,25.39 30.22,24.86 29.11,24.27 28.00,23.67 26.57,22.81 25.13,21.95 24.09,21.28 23.06,20.62 22.11,19.76 21.15,18.90 19.63,17.73 18.11,16.55 17.16,15.69 16.21,14.83 15.19,14.16 14.18,13.50 13.22,12.63 12.26,11.75 10.78,10.70 9.30,9.65 8.31,8.99 7.31,8.33 6.28,7.37 5.24,6.42 3.41,5.14 1.58,3.86 0.12,3.05 -1.34,2.23 -1.59,2.04 -1.83,1.85 -2.03,1.60 -2.22,1.35 -2.35,1.07 -2.48,0.78 -2.54,0.47 -2.60,0.16 -2.58,-0.14 -2.56,-0.46 -2.47,-0.76 -2.38,-1.06 -2.22,-1.33 -2.06,-1.60 -1.83,-1.82 -1.61,-2.04 -1.34,-2.21 -1.07,-2.37 -0.77,-2.47 -0.47,-2.56 -0.16,-2.58 0.14,-2.60 0.45,-2.55 0.76,-2.49 1.05,-2.36 1.34,-2.23 1.34,-2.23 L 1.34,-2.23 Z"></path></g><g transform="translate(215 381.11805555555566) rotate(0 1 8.5)" stroke="none"><path fill="#e03131" d="M 2.65,0 Q 2.65,0 2.66,1.15 2.68,2.3 2.76,3.69 2.83,5.08 2.89,6.15 2.95,7.22 3.37,8.35 3.80,9.48 3.98,10.81 4.17,12.14 4.71,14.40 5.25,16.65 5.22,17.18 5.18,17.71 4.99,18.20 4.79,18.69 4.45,19.09 4.10,19.49 3.65,19.76 3.19,20.04 2.68,20.15 2.16,20.26 1.64,20.20 1.11,20.14 0.63,19.92 0.15,19.69 -0.22,19.33 -0.60,18.96 -0.85,18.50 -1.10,18.03 -1.18,17.51 -1.26,16.98 -1.18,16.46 -1.09,15.94 -0.84,15.47 -0.59,15.01 -0.21,14.65 0.17,14.28 0.65,14.06 1.13,13.84 1.66,13.79 2.18,13.73 2.70,13.85 3.22,13.96 3.67,14.24 4.12,14.51 4.46,14.92 4.80,15.32 5.00,15.81 5.19,16.30 5.22,16.83 5.24,17.36 5.10,17.87 4.96,18.38 4.66,18.81 4.36,19.25 3.94,19.57 3.52,19.89 3.01,20.06 2.51,20.22 1.98,20.22 1.45,20.22 0.95,20.05 0.45,19.88 0.03,19.56 -0.38,19.23 -0.67,18.80 -0.97,18.36 -1.11,17.85 -1.25,17.34 -1.25,17.34 -1.25,17.34 -1.74,14.89 -2.23,12.44 -2.39,11.34 -2.55,10.24 -2.75,8.73 -2.95,7.22 -2.89,6.15 -2.83,5.08 -2.76,3.69 -2.68,2.3 -2.66,1.15 -2.65,0 -2.61,-0.31 -2.57,-0.63 -2.46,-0.93 -2.34,-1.23 -2.16,-1.49 -1.98,-1.75 -1.74,-1.97 -1.50,-2.18 -1.22,-2.33 -0.94,-2.47 -0.62,-2.55 -0.31,-2.63 0.00,-2.63 0.31,-2.63 0.63,-2.55 0.94,-2.47 1.22,-2.33 1.50,-2.18 1.74,-1.97 1.98,-1.75 2.16,-1.49 2.34,-1.23 2.46,-0.93 2.57,-0.63 2.61,-0.31 2.65,0.00 2.65,0.00 L 2.65,0 Z"></path></g><g transform="translate(221 375.11805555555566) rotate(0 1.5 19)" stroke="none"><path fill="#e03131" d="M 2.58,-0.64 Q 2.58,-0.64 2.88,0.49 3.17,1.62 3.82,2.97 4.46,4.32 5.08,5.90 5.70,7.47 5.87,8.79 6.05,10.10 6.11,11.16 6.16,12.23 6.21,13.74 6.27,15.25 6.30,16.75 6.34,18.26 6.37,19.76 6.40,21.26 6.43,22.76 6.45,24.26 6.47,25.76 6.49,27.26 6.50,28.76 6.52,30.26 6.53,31.76 6.54,33.26 6.55,35.63 6.56,37.99 6.47,38.56 6.37,39.13 6.10,39.64 5.83,40.15 5.42,40.55 5.00,40.95 4.47,41.19 3.95,41.43 3.38,41.49 2.80,41.56 2.24,41.43 1.67,41.31 1.18,41.01 0.69,40.71 0.31,40.27 -0.05,39.83 -0.26,39.30 -0.48,38.76 -0.51,38.19 -0.54,37.61 -0.39,37.05 -0.23,36.50 0.08,36.02 0.41,35.54 0.87,35.19 1.32,34.84 1.87,34.66 2.42,34.48 3.00,34.48 3.57,34.48 4.12,34.66 4.67,34.84 5.13,35.19 5.58,35.54 5.91,36.02 6.23,36.50 6.39,37.05 6.54,37.61 6.51,38.19 6.48,38.76 6.26,39.30 6.05,39.83 5.68,40.27 5.30,40.71 4.81,41.01 4.31,41.31 3.75,41.43 3.19,41.56 2.61,41.49 2.04,41.43 1.52,41.19 0.99,40.95 0.57,40.55 0.16,40.15 -0.11,39.64 -0.38,39.13 -0.47,38.56 -0.56,37.99 -0.56,37.99 -0.56,38.00 -0.55,35.13 -0.54,32.26 -0.52,30.76 -0.51,29.26 -0.49,27.76 -0.48,26.26 -0.46,24.76 -0.44,23.26 -0.41,21.76 -0.38,20.26 -0.35,18.76 -0.32,17.26 -0.28,15.76 -0.24,14.26 -0.19,12.79 -0.15,11.32 -0.07,10.03 -0.00,8.73 -0.52,6.93 -1.04,5.12 -1.53,4.04 -2.02,2.97 -2.30,1.80 -2.58,0.64 -2.62,0.32 -2.66,0.00 -2.62,-0.31 -2.58,-0.62 -2.47,-0.92 -2.36,-1.23 -2.18,-1.49 -1.99,-1.75 -1.76,-1.97 -1.52,-2.18 -1.23,-2.33 -0.95,-2.48 -0.64,-2.56 -0.32,-2.64 -0.00,-2.64 0.31,-2.64 0.62,-2.56 0.93,-2.49 1.22,-2.34 1.50,-2.19 1.74,-1.98 1.98,-1.77 2.17,-1.50 2.35,-1.24 2.46,-0.94 2.58,-0.64 2.58,-0.64 L 2.58,-0.64 Z"></path></g><g transform="translate(226 397.11805555555566) rotate(0 39.5 -31)" stroke="none"><path fill="#e03131" d="M -0.80,-2.42 Q -0.80,-2.42 0.94,-2.92 2.69,-3.42 4.15,-3.73 5.61,-4.03 7.51,-4.85 9.42,-5.67 11.23,-6.50 13.04,-7.33 14.23,-8.09 15.42,-8.85 16.36,-9.34 17.31,-9.84 18.78,-10.82 20.26,-11.81 21.24,-12.33 22.22,-12.86 23.72,-13.85 25.22,-14.85 26.71,-15.86 28.20,-16.88 29.15,-17.73 30.11,-18.58 31.14,-19.24 32.16,-19.90 33.12,-20.76 34.07,-21.61 35.10,-22.28 36.14,-22.94 37.01,-24.11 37.88,-25.28 39.41,-26.48 40.94,-27.67 41.95,-28.20 42.96,-28.73 43.69,-29.51 44.42,-30.30 45.51,-31.39 46.60,-32.48 47.59,-33.50 48.59,-34.52 49.37,-35.36 50.16,-36.20 51.00,-37.00 51.84,-37.80 53.37,-38.85 54.89,-39.90 56.25,-40.78 57.61,-41.65 58.77,-42.80 59.94,-43.96 60.85,-44.85 61.76,-45.74 62.74,-46.76 63.71,-47.78 64.67,-49.10 65.62,-50.42 66.69,-51.96 67.75,-53.49 68.72,-54.54 69.70,-55.59 70.72,-57.05 71.75,-58.51 72.70,-59.52 73.64,-60.52 74.97,-62.45 76.31,-64.37 76.76,-64.74 77.20,-65.10 77.75,-65.31 78.29,-65.51 78.87,-65.53 79.45,-65.55 80.01,-65.39 80.56,-65.22 81.04,-64.89 81.51,-64.55 81.85,-64.08 82.20,-63.61 82.37,-63.06 82.55,-62.51 82.53,-61.93 82.52,-61.35 82.33,-60.80 82.13,-60.25 81.77,-59.80 81.41,-59.34 80.93,-59.03 80.44,-58.71 79.88,-58.57 79.31,-58.42 78.74,-58.46 78.16,-58.51 77.62,-58.73 77.09,-58.96 76.65,-59.34 76.22,-59.73 75.93,-60.23 75.64,-60.73 75.52,-61.30 75.41,-61.87 75.48,-62.45 75.56,-63.02 75.81,-63.54 76.07,-64.07 76.47,-64.48 76.88,-64.89 77.40,-65.15 77.92,-65.42 78.49,-65.50 79.06,-65.58 79.64,-65.48 80.21,-65.37 80.71,-65.09 81.22,-64.81 81.61,-64.38 82.00,-63.95 82.24,-63.42 82.47,-62.89 82.52,-62.31 82.57,-61.73 82.44,-61.17 82.30,-60.60 81.99,-60.11 81.68,-59.62 81.68,-59.62 81.68,-59.62 80.91,-58.87 80.15,-58.13 79.53,-56.97 78.91,-55.82 77.97,-54.89 77.03,-53.96 75.96,-52.39 74.89,-50.83 73.95,-49.90 73.01,-48.97 71.98,-47.42 70.95,-45.88 70.36,-44.86 69.78,-43.85 68.69,-43.19 67.60,-42.52 66.62,-41.12 65.64,-39.72 64.18,-38.70 62.72,-37.68 61.62,-36.68 60.52,-35.68 59.07,-34.71 57.63,-33.74 56.64,-32.76 55.66,-31.78 54.53,-31.14 53.40,-30.49 52.58,-29.68 51.75,-28.87 50.70,-27.84 49.66,-26.82 48.73,-25.87 47.80,-24.93 46.51,-23.86 45.22,-22.78 43.82,-21.76 42.42,-20.73 41.76,-19.79 41.10,-18.85 39.69,-17.87 38.27,-16.90 36.85,-15.76 35.42,-14.61 34.16,-13.72 32.90,-12.82 31.38,-11.83 29.86,-10.85 28.29,-9.84 26.73,-8.84 24.95,-7.78 23.17,-6.72 21.54,-5.73 19.91,-4.74 18.14,-3.88 16.38,-3.01 14.84,-2.53 13.30,-2.05 12.38,-1.51 11.45,-0.97 10.30,-0.51 9.14,-0.05 7.83,0.35 6.51,0.75 5.36,0.94 4.20,1.12 2.50,1.77 0.80,2.42 0.50,2.49 0.20,2.55 -0.10,2.54 -0.41,2.52 -0.70,2.44 -1.00,2.35 -1.27,2.20 -1.53,2.04 -1.76,1.83 -1.98,1.61 -2.14,1.35 -2.31,1.09 -2.41,0.80 -2.50,0.51 -2.53,0.20 -2.55,-0.10 -2.50,-0.40 -2.45,-0.71 -2.33,-0.99 -2.21,-1.28 -2.03,-1.52 -1.84,-1.77 -1.60,-1.97 -1.36,-2.16 -1.08,-2.29 -0.80,-2.42 -0.80,-2.42 L -0.80,-2.42 Z"></path></g><g transform="translate(152 366.11805555555566) rotate(0 -71 189.5)" stroke="none"><path fill="#e03131" d="M 2.32,0.46 Q 2.32,0.46 2.04,1.90 1.75,3.34 1.33,4.69 0.91,6.04 0.45,7.21 -0.00,8.37 -0.49,10.39 -0.97,12.40 -1.42,13.50 -1.88,14.59 -3.13,17.53 -4.38,20.48 -5.12,21.87 -5.86,23.26 -6.41,24.37 -6.95,25.48 -7.45,26.53 -7.95,27.57 -8.51,29.38 -9.06,31.19 -9.94,33.02 -10.81,34.84 -11.79,36.48 -12.77,38.12 -13.25,39.53 -13.74,40.94 -14.85,42.53 -15.97,44.12 -16.91,46.02 -17.85,47.93 -18.90,49.17 -19.96,50.42 -20.96,51.47 -21.96,52.53 -22.95,53.55 -23.94,54.57 -24.97,55.60 -26.00,56.64 -26.96,57.19 -27.93,57.73 -29.48,58.79 -31.03,59.85 -32.00,60.83 -32.98,61.80 -33.97,62.33 -34.95,62.85 -36.05,63.57 -37.15,64.29 -39.04,65.13 -40.92,65.97 -42.07,66.64 -43.21,67.32 -44.56,67.64 -45.91,67.96 -47.06,68.62 -48.21,69.28 -49.16,69.74 -50.12,70.21 -52.03,71.03 -53.95,71.86 -55.08,72.46 -56.21,73.06 -57.18,73.59 -58.15,74.12 -59.09,74.91 -60.02,75.71 -61.06,76.37 -62.10,77.02 -63.60,78.03 -65.10,79.04 -66.10,79.56 -67.10,80.08 -68.11,80.58 -69.11,81.07 -70.11,81.57 -71.12,82.06 -72.74,82.74 -74.37,83.42 -75.44,84.16 -76.51,84.90 -78.32,86.23 -80.13,87.56 -81.16,88.13 -82.19,88.71 -83.71,89.75 -85.24,90.78 -86.23,91.31 -87.22,91.84 -88.72,92.84 -90.22,93.85 -91.21,94.37 -92.20,94.90 -92.96,95.78 -93.72,96.66 -94.83,97.58 -95.95,98.50 -97.00,99.49 -98.06,100.49 -99.08,101.16 -100.10,101.83 -100.98,103.00 -101.86,104.16 -102.95,104.96 -104.04,105.76 -105.04,106.67 -106.03,107.58 -107.01,108.56 -107.99,109.54 -109.47,110.61 -110.96,111.67 -111.93,112.64 -112.90,113.60 -113.87,115.06 -114.83,116.51 -115.77,117.90 -116.72,119.30 -117.74,120.42 -118.77,121.54 -119.77,123.04 -120.77,124.55 -121.78,125.60 -122.80,126.65 -123.70,128.38 -124.61,130.11 -125.48,132.09 -126.34,134.08 -126.91,135.78 -127.48,137.48 -127.53,138.67 -127.59,139.85 -127.99,141.20 -128.40,142.55 -128.52,143.90 -128.65,145.24 -129.05,146.51 -129.45,147.78 -129.57,149.26 -129.68,150.74 -130.09,153.08 -130.49,155.43 -130.62,157.06 -130.75,158.69 -130.82,160.90 -130.90,163.12 -130.91,164.23 -130.93,165.35 -130.97,166.68 -131.00,168.02 -131.05,169.45 -131.10,170.88 -131.10,172.06 -131.10,173.25 -131.13,174.61 -131.16,175.98 -131.16,177.13 -131.15,178.29 -131.17,179.65 -131.20,181.00 -131.54,182.70 -131.89,184.40 -131.99,185.46 -132.08,186.52 -132.14,187.80 -132.20,189.08 -132.25,190.49 -132.29,191.90 -132.33,193.37 -132.36,194.83 -132.39,196.31 -132.41,197.80 -132.49,199.58 -132.56,201.36 -132.65,203.27 -132.74,205.18 -132.82,207.14 -132.90,209.10 -132.97,211.08 -133.03,213.06 -133.08,215.06 -133.14,217.05 -133.18,219.05 -133.22,221.04 -133.19,222.75 -133.16,224.47 -133.17,226.34 -133.18,228.22 -133.15,229.88 -133.12,231.54 -133.19,235.41 -133.27,239.28 -133.32,242.07 -133.38,244.86 -133.40,246.91 -133.42,248.96 -133.43,250.99 -133.44,253.01 -133.39,254.73 -133.34,256.45 -133.33,258.33 -133.32,260.21 -133.27,261.88 -133.22,263.54 -133.14,264.82 -133.06,266.10 -133.00,267.51 -132.95,268.91 -132.91,270.38 -132.88,271.84 -132.82,273.03 -132.76,274.23 -132.73,275.60 -132.70,276.97 -133.04,278.89 -133.38,280.80 -133.49,282.30 -133.60,283.80 -133.61,285.02 -133.62,286.24 -133.59,287.32 -133.56,288.41 -133.87,289.98 -134.18,291.55 -134.26,293.55 -134.34,295.56 -134.36,296.83 -134.37,298.10 -134.36,299.22 -134.34,300.34 -134.30,302.41 -134.25,304.49 -134.20,306.23 -134.15,307.98 -134.48,309.28 -134.82,310.58 -134.89,312.15 -134.97,313.71 -134.97,315.35 -134.96,316.99 -135.31,319.23 -135.65,321.48 -135.78,323.35 -135.92,325.23 -135.94,326.31 -135.97,327.40 -136.01,329.74 -136.05,332.07 -136.05,333.20 -136.06,334.33 -136.08,336.69 -136.09,339.06 -136.09,340.19 -136.09,341.32 -136.08,343.41 -136.06,345.50 -136.41,347.10 -136.75,348.70 -136.88,350.64 -137.02,352.58 -137.00,354.15 -136.99,355.71 -136.95,356.94 -136.91,358.16 -137.36,359.96 -137.80,361.75 -137.75,363.04 -137.69,364.32 -137.66,365.79 -137.63,367.26 -137.64,368.37 -137.65,369.48 -138.13,370.70 -138.60,371.92 -138.55,373.12 -138.51,374.32 -138.50,376.66 -138.49,379.00 -138.59,379.56 -138.68,380.11 -138.94,380.62 -139.21,381.12 -139.62,381.50 -140.03,381.89 -140.55,382.13 -141.06,382.37 -141.62,382.43 -142.19,382.49 -142.74,382.37 -143.29,382.25 -143.78,381.95 -144.26,381.66 -144.63,381.23 -145.00,380.80 -145.21,380.27 -145.41,379.75 -145.44,379.18 -145.47,378.61 -145.32,378.07 -145.17,377.52 -144.85,377.05 -144.53,376.59 -144.08,376.24 -143.63,375.90 -143.10,375.72 -142.56,375.54 -141.99,375.54 -141.43,375.54 -140.89,375.72 -140.35,375.90 -139.90,376.25 -139.45,376.59 -139.13,377.06 -138.82,377.53 -138.67,378.07 -138.51,378.62 -138.55,379.18 -138.58,379.75 -138.79,380.28 -139.00,380.80 -139.36,381.23 -139.73,381.67 -140.22,381.96 -140.70,382.25 -141.26,382.37 -141.81,382.49 -142.37,382.43 -142.93,382.37 -143.45,382.13 -143.96,381.89 -144.37,381.50 -144.78,381.11 -145.05,380.61 -145.31,380.11 -145.40,379.55 -145.50,378.99 -145.50,378.99 -145.50,378.99 -145.47,376.59 -145.45,374.19 -145.40,373.05 -145.35,371.90 -144.84,370.46 -144.33,369.03 -144.33,367.64 -144.33,366.24 -144.28,364.68 -144.22,363.11 -144.07,361.81 -143.92,360.50 -143.50,359.32 -143.07,358.14 -143.02,356.90 -142.97,355.65 -142.90,353.97 -142.82,352.29 -142.75,351.16 -142.69,350.02 -142.31,347.74 -141.93,345.47 -141.91,343.39 -141.90,341.32 -141.90,340.19 -141.89,339.06 -141.91,336.69 -141.93,334.32 -141.93,333.18 -141.93,332.05 -141.95,330.73 -141.98,329.42 -141.96,328.35 -141.95,327.28 -141.94,326.13 -141.92,324.98 -141.88,323.58 -141.85,322.17 -141.67,320.94 -141.49,319.71 -141.24,318.31 -141.00,316.91 -140.93,315.15 -140.87,313.39 -140.79,312.31 -140.72,311.22 -140.52,310.01 -140.32,308.80 -140.05,307.65 -139.78,306.50 -139.73,304.46 -139.68,302.42 -139.65,301.36 -139.62,300.30 -139.58,299.15 -139.55,298.01 -139.52,296.65 -139.49,295.30 -139.39,294.17 -139.30,293.03 -139.11,291.76 -138.93,290.50 -138.65,289.40 -138.36,288.30 -138.29,287.17 -138.22,286.05 -138.12,284.75 -138.02,283.46 -137.89,281.77 -137.76,280.07 -137.52,278.52 -137.29,276.96 -137.26,275.60 -137.23,274.23 -137.17,273.03 -137.11,271.84 -137.08,270.38 -137.04,268.91 -136.99,267.51 -136.93,266.10 -136.85,264.82 -136.77,263.54 -136.72,261.88 -136.67,260.21 -136.66,258.33 -136.65,256.45 -136.60,254.73 -136.55,253.01 -136.56,250.99 -136.57,248.96 -136.59,246.91 -136.61,244.86 -136.67,242.07 -136.72,239.28 -136.80,235.41 -136.87,231.54 -136.84,229.88 -136.81,228.22 -136.82,226.34 -136.83,224.47 -136.80,222.75 -136.77,221.04 -136.81,219.05 -136.85,217.05 -136.91,215.06 -136.96,213.06 -137.02,211.08 -137.09,209.10 -137.17,207.13 -137.25,205.17 -137.34,203.27 -137.42,201.36 -137.49,199.57 -137.56,197.79 -137.58,196.29 -137.60,194.80 -137.62,193.31 -137.63,191.82 -137.63,190.35 -137.63,188.87 -137.59,187.42 -137.55,185.96 -137.40,184.65 -137.25,183.34 -137.02,182.16 -136.79,180.98 -136.82,179.64 -136.84,178.29 -136.83,177.13 -136.83,175.98 -136.86,174.61 -136.88,173.24 -136.89,172.06 -136.89,170.88 -136.94,169.44 -136.98,168.01 -137.02,166.67 -137.05,165.32 -137.06,164.20 -137.07,163.07 -137.07,160.71 -137.08,158.35 -137.02,157.23 -136.96,156.12 -136.79,154.87 -136.62,153.61 -136.38,151.99 -136.14,150.36 -136.08,149.25 -136.02,148.15 -135.82,146.88 -135.62,145.62 -135.32,144.36 -135.03,143.10 -134.62,141.22 -134.21,139.35 -134.14,138.25 -134.07,137.14 -133.56,135.58 -133.06,134.01 -132.81,132.72 -132.56,131.42 -131.93,129.79 -131.31,128.17 -130.79,127.21 -130.27,126.25 -129.71,125.14 -129.16,124.03 -127.97,122.46 -126.78,120.88 -125.82,119.91 -124.86,118.94 -124.33,117.96 -123.81,116.97 -122.82,115.96 -121.82,114.95 -121.30,113.98 -120.78,113.00 -119.75,111.96 -118.73,110.92 -118.17,109.95 -117.61,108.97 -116.42,107.89 -115.24,106.81 -113.86,105.89 -112.49,104.96 -111.40,103.93 -110.31,102.91 -108.93,101.75 -107.55,100.60 -106.52,99.75 -105.48,98.89 -104.48,97.77 -103.49,96.65 -102.27,95.76 -101.06,94.86 -99.81,93.93 -98.56,93.00 -97.67,91.92 -96.78,90.84 -95.89,90.23 -95.00,89.61 -93.36,88.73 -91.72,87.85 -89.95,86.78 -88.18,85.72 -86.56,84.71 -84.95,83.71 -83.26,82.77 -81.58,81.82 -80.69,81.11 -79.81,80.40 -78.39,79.32 -76.98,78.24 -75.47,77.35 -73.95,76.46 -72.98,75.95 -72.01,75.44 -70.20,74.46 -68.39,73.47 -66.94,72.48 -65.48,71.50 -64.22,70.59 -62.96,69.68 -61.35,68.64 -59.75,67.61 -58.78,67.02 -57.81,66.43 -56.64,65.97 -55.48,65.51 -54.28,64.94 -53.08,64.38 -51.32,63.44 -49.56,62.51 -48.44,61.99 -47.31,61.46 -46.03,60.99 -44.74,60.52 -43.39,60.03 -42.03,59.54 -40.67,58.62 -39.30,57.70 -37.91,56.75 -36.51,55.80 -34.97,54.80 -33.43,53.79 -31.97,52.83 -30.52,51.87 -29.54,50.91 -28.57,49.94 -27.57,48.96 -26.56,47.98 -25.59,47.02 -24.62,46.06 -23.82,45.24 -23.03,44.42 -22.46,43.32 -21.89,42.23 -21.25,41.22 -20.61,40.20 -19.87,39.37 -19.14,38.53 -18.45,36.92 -17.76,35.30 -16.76,33.82 -15.76,32.34 -15.26,31.39 -14.76,30.45 -13.97,29.17 -13.18,27.90 -12.82,26.61 -12.46,25.32 -11.89,24.26 -11.32,23.21 -10.71,22.09 -10.10,20.97 -9.46,19.82 -8.82,18.67 -7.81,15.55 -6.79,12.43 -6.02,10.70 -5.24,8.98 -4.93,7.70 -4.62,6.43 -4.16,5.44 -3.70,4.44 -3.30,3.42 -2.90,2.40 -2.61,0.97 -2.32,-0.46 -2.23,-0.73 -2.14,-1.00 -1.99,-1.25 -1.84,-1.49 -1.63,-1.69 -1.43,-1.88 -1.18,-2.03 -0.93,-2.17 -0.66,-2.25 -0.38,-2.33 -0.10,-2.35 0.18,-2.36 0.46,-2.30 0.74,-2.25 1.00,-2.13 1.25,-2.00 1.48,-1.82 1.70,-1.64 1.87,-1.42 2.04,-1.19 2.16,-0.93 2.27,-0.66 2.32,-0.38 2.36,-0.10 2.34,0.18 2.32,0.46 2.32,0.46 L 2.32,0.46 Z"></path></g><g transform="translate(340 414.11805555555566) rotate(0 0.00004999999998744897 0.00004999999998744897)" stroke="none"><path fill="#e03131" d="M 1.57,-1.57 Q 1.57,-1.57 1.77,-1.27 1.98,-0.98 2.09,-0.64 2.20,-0.29 2.19,0.05 2.18,0.41 2.05,0.75 1.93,1.09 1.70,1.37 1.48,1.65 1.18,1.84 0.87,2.04 0.52,2.12 0.18,2.21 -0.17,2.18 -0.53,2.15 -0.86,2.01 -1.19,1.87 -1.46,1.63 -1.73,1.39 -1.90,1.07 -2.08,0.76 -2.15,0.41 -2.21,0.05 -2.17,-0.29 -2.12,-0.65 -1.96,-0.97 -1.80,-1.29 -1.54,-1.54 -1.29,-1.80 -0.97,-1.96 -0.65,-2.12 -0.29,-2.17 0.06,-2.21 0.41,-2.15 0.76,-2.08 1.07,-1.90 1.39,-1.73 1.63,-1.46 1.87,-1.19 2.01,-0.86 2.15,-0.53 2.18,-0.17 2.21,0.18 2.12,0.52 2.03,0.87 1.84,1.18 1.65,1.48 1.37,1.70 1.09,1.93 0.75,2.05 0.41,2.18 0.05,2.19 -0.30,2.20 -0.64,2.09 -0.98,1.98 -1.27,1.77 -1.57,1.56 -1.57,1.57 -1.57,1.57 -1.73,1.35 -1.90,1.14 -2.01,0.90 -2.12,0.66 -2.16,0.39 -2.21,0.13 -2.20,-0.13 -2.18,-0.40 -2.10,-0.65 -2.02,-0.91 -1.88,-1.14 -1.74,-1.36 -1.55,-1.55 -1.36,-1.74 -1.14,-1.88 -0.91,-2.02 -0.65,-2.10 -0.40,-2.18 -0.13,-2.20 0.13,-2.21 0.39,-2.16 0.66,-2.12 0.90,-2.01 1.14,-1.90 1.35,-1.73 1.57,-1.57 1.57,-1.57 L 1.57,-1.57 Z"></path></g><g transform="translate(312 339.11805555555566) rotate(0 108.5 219)" stroke="none"><path fill="#e03131" d="M 1.91,-0.71 Q 1.91,-0.71 2.68,1.61 3.45,3.95 4.11,5.45 4.78,6.96 5.59,8.39 6.40,9.81 7.57,12.25 8.74,14.68 9.77,16.18 10.80,17.67 11.85,19.21 12.90,20.75 13.91,21.87 14.91,23.00 15.93,24.03 16.94,25.05 17.97,26.04 18.99,27.03 20.07,28.42 21.15,29.80 22.30,30.79 23.45,31.78 24.61,32.84 25.78,33.90 26.87,34.91 27.95,35.93 29.24,37.26 30.53,38.60 31.67,39.71 32.81,40.83 33.89,41.87 34.96,42.90 36.01,43.91 37.05,44.91 38.24,45.84 39.43,46.76 40.62,47.80 41.81,48.84 43.07,49.80 44.33,50.75 45.42,51.38 46.50,52.01 47.87,52.91 49.23,53.80 50.34,54.40 51.45,55.00 52.68,55.50 53.91,56.00 55.11,56.51 56.30,57.03 57.58,57.50 58.86,57.98 60.07,58.48 61.29,58.99 62.38,59.47 63.48,59.96 65.81,60.47 68.13,60.98 70.44,61.45 72.74,61.92 73.96,62.05 75.18,62.18 76.80,62.58 78.42,62.98 79.74,63.12 81.05,63.26 82.75,63.39 84.45,63.51 86.49,63.93 88.54,64.35 90.39,64.54 92.24,64.74 93.90,64.80 95.56,64.85 97.56,65.22 99.55,65.58 101.13,65.69 102.70,65.80 104.23,65.83 105.76,65.86 107.46,66.16 109.16,66.47 110.74,66.90 112.33,67.32 113.68,67.44 115.04,67.57 117.05,68.33 119.05,69.09 120.89,69.70 122.72,70.31 125.09,71.54 127.45,72.78 129.60,74.21 131.76,75.64 133.81,77.12 135.86,78.61 137.88,80.12 139.89,81.62 141.69,83.50 143.49,85.37 145.10,87.32 146.72,89.28 148.26,91.26 149.80,93.25 151.07,95.30 152.34,97.35 153.44,99.03 154.55,100.72 155.60,102.64 156.66,104.56 157.67,106.52 158.69,108.49 159.97,110.73 161.25,112.98 162.68,116.00 164.11,119.02 165.59,122.62 167.06,126.22 168.55,130.05 170.04,133.88 171.52,137.50 173.01,141.12 174.23,144.72 175.46,148.31 176.83,152.11 178.20,155.91 179.37,159.87 180.54,163.83 181.34,168.15 182.14,172.47 183.03,176.26 183.93,180.04 184.61,183.41 185.29,186.79 186.14,190.19 187.00,193.60 187.66,197.11 188.32,200.62 188.89,204.71 189.46,208.81 190.56,214.82 191.66,220.83 192.41,224.83 193.17,228.83 193.50,232.03 193.83,235.22 194.25,238.55 194.67,241.88 195.14,245.31 195.60,248.74 196.09,252.21 196.58,255.68 196.79,258.93 197.00,262.18 197.37,264.93 197.74,267.68 197.91,270.07 198.07,272.45 198.42,274.83 198.77,277.21 199.20,279.36 199.63,281.51 200.11,284.18 200.59,286.84 201.08,289.70 201.57,292.56 202.06,295.50 202.56,298.43 203.06,301.41 203.55,304.38 204.05,307.07 204.55,309.76 204.77,312.12 204.99,314.48 205.36,316.85 205.73,319.22 205.90,321.75 206.07,324.27 206.42,326.70 206.77,329.14 207.21,331.91 207.64,334.68 207.84,337.65 208.03,340.61 208.11,343.31 208.19,346.00 208.51,348.22 208.82,350.43 209.02,352.31 209.22,354.18 209.36,355.84 209.50,357.51 209.62,358.79 209.74,360.07 210.33,362.13 210.91,364.19 211.02,365.58 211.13,366.96 211.44,368.19 211.74,369.42 211.86,371.33 211.98,373.24 211.99,375.18 211.99,377.13 212.22,378.96 212.46,380.80 212.61,382.57 212.77,384.34 212.85,385.96 212.94,387.58 212.99,389.14 213.05,390.69 213.11,391.92 213.18,393.15 213.69,395.16 214.21,397.17 214.39,398.59 214.58,400.01 215.11,401.79 215.63,403.57 215.80,404.84 215.97,406.12 216.52,407.54 217.07,408.96 217.15,410.08 217.22,411.21 217.27,412.73 217.32,414.25 217.72,415.85 218.12,417.45 218.23,418.68 218.34,419.91 218.86,421.40 219.37,422.89 219.42,424.04 219.48,425.19 219.50,426.72 219.52,428.25 219.89,429.33 220.26,430.42 220.39,431.76 220.52,433.10 220.55,435.54 220.57,437.99 220.48,438.56 220.39,439.13 220.12,439.64 219.85,440.16 219.43,440.55 219.01,440.95 218.48,441.20 217.96,441.44 217.38,441.50 216.81,441.57 216.24,441.44 215.68,441.32 215.18,441.02 214.68,440.72 214.31,440.28 213.93,439.84 213.72,439.31 213.50,438.77 213.47,438.19 213.44,437.61 213.59,437.06 213.75,436.50 214.07,436.02 214.39,435.54 214.86,435.19 215.32,434.84 215.86,434.65 216.41,434.47 216.99,434.47 217.57,434.46 218.12,434.65 218.67,434.83 219.13,435.18 219.59,435.53 219.91,436.01 220.24,436.49 220.40,437.05 220.55,437.60 220.52,438.18 220.49,438.76 220.28,439.30 220.06,439.84 219.69,440.28 219.31,440.72 218.82,441.02 218.32,441.32 217.76,441.44 217.19,441.57 216.62,441.50 216.04,441.44 215.52,441.20 214.99,440.96 214.57,440.56 214.15,440.16 213.88,439.65 213.61,439.14 213.51,438.57 213.42,438.00 213.42,438.00 213.42,438.00 213.42,436.16 213.42,434.32 213.45,433.15 213.49,431.98 212.98,430.12 212.47,428.26 212.47,426.79 212.48,425.32 212.53,424.15 212.58,422.98 212.10,420.94 211.62,418.91 211.15,417.69 210.68,416.48 210.69,414.88 210.69,413.27 210.72,411.85 210.75,410.44 210.59,409.35 210.42,408.27 210.25,406.45 210.09,404.62 209.69,402.93 209.28,401.24 209.34,400.17 209.40,399.10 209.36,397.53 209.33,395.97 209.05,394.59 208.78,393.22 208.83,391.99 208.87,390.76 208.88,389.24 208.89,387.73 208.86,386.19 208.83,384.65 208.72,383.03 208.61,381.41 208.22,379.33 207.84,377.26 207.73,375.41 207.62,373.57 207.47,371.97 207.33,370.38 207.02,368.77 206.70,367.16 206.68,365.00 206.66,362.85 206.41,361.50 206.17,360.16 206.25,358.89 206.32,357.62 206.34,356.01 206.36,354.39 206.29,352.59 206.22,350.80 205.89,348.44 205.57,346.08 205.49,343.43 205.41,340.78 205.23,337.94 205.05,335.09 204.61,332.30 204.17,329.51 203.81,326.97 203.45,324.44 203.29,322.03 203.14,319.63 202.76,317.17 202.37,314.72 202.17,312.48 201.97,310.24 201.46,307.53 200.96,304.82 200.47,301.84 199.97,298.87 199.47,295.94 198.98,293.00 198.49,290.15 198.00,287.30 197.53,284.67 197.06,282.03 196.61,279.81 196.17,277.59 195.81,275.11 195.45,272.63 195.29,270.33 195.14,268.03 194.76,265.19 194.38,262.35 194.18,259.20 193.98,256.04 193.49,252.57 193.00,249.09 192.53,245.65 192.07,242.21 191.64,238.85 191.21,235.49 190.90,232.40 190.59,229.32 189.83,225.31 189.07,221.30 187.97,215.24 186.86,209.17 186.30,205.14 185.74,201.10 185.09,197.67 184.45,194.24 183.58,190.77 182.71,187.30 182.04,183.98 181.38,180.65 180.46,176.80 179.55,172.94 178.78,168.76 178.02,164.57 176.87,160.69 175.72,156.81 174.34,152.98 172.96,149.16 171.76,145.64 170.56,142.13 169.07,138.48 167.57,134.84 166.08,131.03 164.60,127.23 163.15,123.70 161.70,120.17 160.31,117.24 158.91,114.31 157.60,112.03 156.29,109.75 155.27,107.82 154.26,105.89 153.23,104.06 152.20,102.23 151.11,100.51 150.02,98.78 148.83,96.87 147.63,94.95 146.10,93.02 144.56,91.08 142.99,89.23 141.42,87.37 139.77,85.70 138.13,84.02 136.11,82.59 134.08,81.16 132.04,79.79 130.00,78.42 127.95,77.18 125.89,75.95 123.76,74.98 121.62,74.01 119.63,73.49 117.64,72.97 116.07,72.43 114.50,71.89 112.85,71.66 111.19,71.43 109.75,71.01 108.32,70.59 106.96,70.28 105.60,69.97 103.99,69.88 102.39,69.80 100.65,69.64 98.91,69.48 97.16,69.23 95.42,68.97 93.69,68.91 91.96,68.85 89.89,68.78 87.82,68.71 86.05,68.50 84.27,68.29 82.41,68.29 80.55,68.29 78.89,68.13 77.23,67.97 75.93,67.67 74.62,67.37 72.99,67.19 71.37,67.02 70.20,66.70 69.03,66.38 66.84,65.78 64.64,65.19 63.00,64.87 61.37,64.55 60.34,64.03 59.30,63.51 58.22,63.00 57.14,62.50 55.72,61.95 54.29,61.40 53.19,60.86 52.09,60.31 50.61,59.67 49.14,59.03 47.95,58.31 46.77,57.59 45.43,56.73 44.10,55.87 42.90,55.07 41.70,54.28 40.27,53.23 38.84,52.18 37.78,51.21 36.72,50.24 35.32,49.15 33.91,48.05 32.91,47.01 31.90,45.97 30.87,44.90 29.83,43.83 28.71,42.69 27.59,41.56 26.26,40.30 24.93,39.04 23.91,38.00 22.89,36.97 21.81,35.92 20.73,34.87 19.31,33.60 17.88,32.33 16.96,31.10 16.03,29.88 15.05,28.79 14.07,27.70 13.07,26.53 12.07,25.36 11.04,24.03 10.01,22.71 8.98,21.17 7.95,19.64 6.79,17.97 5.63,16.29 4.35,13.99 3.06,11.68 2.17,10.06 1.28,8.44 0.63,6.84 -0.00,5.24 -0.95,2.98 -1.91,0.71 -1.97,0.47 -2.02,0.23 -2.02,-0.00 -2.02,-0.25 -1.96,-0.49 -1.90,-0.73 -1.79,-0.94 -1.67,-1.16 -1.51,-1.35 -1.34,-1.53 -1.14,-1.67 -0.94,-1.81 -0.71,-1.89 -0.48,-1.98 -0.23,-2.01 0.00,-2.04 0.25,-2.01 0.49,-1.98 0.72,-1.89 0.95,-1.80 1.15,-1.66 1.36,-1.52 1.52,-1.33 1.68,-1.15 1.79,-0.93 1.91,-0.71 1.91,-0.71 L 1.91,-0.71 Z"></path></g><g transform="translate(360 543.1180555555557) rotate(0 34 42)" stroke="none"><path fill="#e03131" d="M 0,-2.67 Q 0,-2.67 1.15,-2.68 2.3,-2.70 3.68,-2.39 5.06,-2.07 6.02,-1.17 6.98,-0.26 7.84,1.06 8.71,2.40 9.15,3.73 9.60,5.06 9.80,6.52 10.01,7.97 10.07,9.08 10.14,10.20 10.18,11.22 10.22,12.24 10.17,12.62 10.13,13.01 9.99,13.37 9.86,13.74 9.64,14.06 9.42,14.38 9.13,14.64 8.84,14.90 8.50,15.08 8.15,15.26 7.78,15.36 7.40,15.45 7.01,15.45 6.62,15.45 6.24,15.36 5.87,15.27 5.52,15.09 5.18,14.92 4.88,14.66 4.59,14.40 4.37,14.08 4.15,13.77 4.01,13.40 3.87,13.04 3.82,12.66 3.77,12.27 5.04,10.78 6.32,9.29 7.91,9.72 9.51,10.15 10.73,11.74 11.94,13.33 13.43,12.58 14.92,11.82 16.40,11.36 17.89,10.90 18.98,10.45 20.08,10.01 21.44,9.33 22.80,8.65 24.84,8.34 26.88,8.04 27.96,9.44 29.03,10.84 28.64,12.86 28.24,14.87 27.74,16.00 27.23,17.12 26.81,18.45 26.39,19.78 26.28,20.17 26.17,20.56 25.97,20.92 25.77,21.27 25.49,21.57 25.20,21.87 24.86,22.09 24.52,22.31 24.13,22.44 23.74,22.57 23.34,22.61 22.93,22.64 22.53,22.58 22.12,22.52 21.75,22.36 21.37,22.20 21.04,21.96 20.71,21.72 20.45,21.40 20.19,21.09 20.01,20.72 19.84,20.35 19.75,19.95 19.67,19.55 19.68,19.14 19.69,18.73 23.02,19.18 26.35,19.63 26.24,20.02 26.13,20.41 25.93,20.76 25.73,21.12 25.45,21.41 25.17,21.71 24.83,21.93 24.48,22.15 24.10,22.28 23.71,22.41 23.31,22.45 22.90,22.48 22.50,22.42 22.10,22.36 21.72,22.20 21.35,22.04 21.02,21.80 20.69,21.56 20.43,21.24 20.17,20.93 20.00,20.56 19.82,20.20 19.74,19.80 19.65,19.40 19.66,18.99 19.68,18.59 21.44,17.13 23.20,15.67 22.84,16.05 22.49,16.43 22.74,16.10 23.00,15.77 23.32,15.51 23.65,15.25 24.02,15.07 24.40,14.90 24.81,14.82 25.22,14.74 25.63,14.76 26.05,14.78 26.44,14.90 26.84,15.02 27.20,15.23 27.56,15.44 27.86,15.73 28.15,16.02 28.37,16.38 28.59,16.73 28.72,17.13 28.85,17.52 28.88,17.94 28.91,18.35 28.83,18.76 28.76,19.17 28.60,19.55 28.43,19.93 27.41,21.58 26.38,23.22 25.49,24.15 24.59,25.08 23.40,26.30 22.20,27.52 21.40,25.94 20.59,24.35 21.80,23.10 23.02,21.85 24.04,21.37 25.06,20.89 26.55,20.08 28.03,19.27 29.07,18.76 30.11,18.24 30.51,18.22 30.90,18.20 31.29,18.28 31.68,18.36 32.04,18.52 32.40,18.69 32.70,18.94 33.01,19.19 33.25,19.50 33.49,19.82 33.65,20.18 33.81,20.55 33.87,20.94 33.94,21.33 33.91,21.72 33.88,22.12 33.75,22.49 33.63,22.87 33.42,23.20 33.21,23.54 32.93,23.82 32.64,24.09 32.30,24.29 31.96,24.49 31.58,24.60 31.20,24.72 32.42,22.42 33.64,20.13 33.88,21.34 34.11,22.55 33.68,23.80 33.24,25.05 32.67,26.19 32.09,27.33 30.35,26.06 28.61,24.79 29.87,24.84 31.14,24.89 31.92,25.96 32.71,27.03 32.66,28.58 32.60,30.13 32.02,31.11 31.45,32.08 30.44,33.60 29.44,35.12 28.02,36.72 26.60,38.32 26.58,36.47 26.57,34.62 28.24,34.19 29.91,33.76 31.58,33.19 33.25,32.63 34.98,32.25 36.70,31.87 37.24,31.83 37.78,31.78 38.18,31.78 38.57,31.78 38.96,31.87 39.34,31.97 39.69,32.15 40.05,32.33 40.34,32.59 40.64,32.85 40.87,33.18 41.09,33.50 41.24,33.87 41.38,34.24 41.43,34.63 41.48,35.03 41.43,35.42 41.39,35.81 41.25,36.18 41.11,36.56 40.89,36.88 40.66,37.21 40.37,37.47 40.07,37.74 39.72,37.92 39.37,38.11 38.99,38.21 38.60,38.30 37.87,39.84 37.15,41.37 36.12,42.16 35.10,42.95 34.79,43.20 34.49,43.45 34.13,43.62 33.77,43.79 33.38,43.86 32.99,43.94 32.60,43.92 32.20,43.91 31.82,43.80 31.44,43.68 31.10,43.48 30.75,43.28 30.47,43.01 30.19,42.73 29.97,42.40 29.76,42.06 29.64,41.68 29.52,41.31 29.49,40.91 29.46,40.52 29.52,40.13 29.59,39.74 29.74,39.37 29.90,39.01 30.14,38.69 30.38,38.38 32.27,38.02 34.16,37.67 36.48,37.19 38.80,36.71 40.15,36.16 41.49,35.61 42.74,35.03 43.99,34.45 45.35,34.08 46.72,33.72 47.46,33.50 48.20,33.29 48.52,33.17 48.84,33.05 49.18,33.01 49.52,32.97 49.86,33.01 50.21,33.05 50.53,33.17 50.85,33.29 51.13,33.49 51.41,33.69 51.64,33.94 51.87,34.20 52.03,34.51 52.19,34.81 52.27,35.14 52.35,35.48 52.35,35.82 52.35,36.17 52.27,36.50 52.19,36.83 52.02,37.14 51.86,37.44 51.64,37.70 51.41,37.96 51.12,38.15 50.84,38.35 50.11,39.29 49.37,40.24 48.24,41.20 47.10,42.17 46.21,42.97 45.32,43.77 43.85,45.58 42.37,47.40 42.30,47.54 42.23,47.68 41.97,47.91 41.72,48.14 41.42,48.29 41.11,48.45 40.78,48.53 40.45,48.61 40.11,48.61 39.77,48.61 39.44,48.53 39.11,48.45 38.81,48.29 38.51,48.13 38.25,47.90 38.00,47.68 37.80,47.40 37.61,47.11 37.49,46.80 37.37,46.48 37.33,46.14 37.29,45.80 37.33,45.46 37.37,45.12 37.49,44.80 37.62,44.49 37.81,44.21 38.00,43.93 40.29,44.24 42.58,44.55 43.09,45.85 43.59,47.15 42.92,48.75 42.25,50.35 41.40,51.56 40.55,52.76 39.52,53.97 38.48,55.17 37.90,56.07 37.32,56.97 36.80,57.92 36.27,58.87 35.75,60.07 35.23,61.26 34.99,61.52 34.75,61.77 34.46,61.96 34.16,62.15 33.83,62.26 33.50,62.37 33.16,62.40 32.81,62.43 32.47,62.38 32.12,62.33 31.80,62.19 31.48,62.06 31.20,61.85 30.92,61.64 30.69,61.38 30.47,61.11 30.32,60.79 30.17,60.48 30.10,60.14 30.02,59.80 30.03,59.45 30.05,59.10 30.14,58.77 30.23,58.43 30.41,58.13 30.58,57.82 33.00,57.63 35.42,57.45 36.16,58.72 36.90,60.00 36.50,61.90 36.11,63.80 37.58,62.38 39.06,60.95 40.51,60.45 41.97,59.94 43.05,59.48 44.13,59.03 45.49,58.72 46.84,58.41 48.48,58.23 50.12,58.05 51.46,58.54 52.80,59.03 53.59,59.96 54.39,60.88 54.76,62.44 55.13,64.01 56.79,63.14 58.45,62.28 60.31,61.71 62.17,61.15 63.29,61.04 64.41,60.93 66.20,61.06 68.00,61.18 69.09,61.88 70.19,62.58 70.61,63.59 71.04,64.59 71.14,66.00 71.25,67.42 70.80,68.66 70.35,69.89 69.84,71.01 69.33,72.12 68.86,73.58 68.39,75.04 67.88,76.13 67.36,77.22 66.31,78.39 65.26,79.56 65.18,78.48 65.10,77.39 66.42,77.57 67.74,77.75 68.12,79.40 68.49,81.05 68.55,80.93 68.61,80.82 69.08,81.16 69.54,81.50 69.87,81.97 70.20,82.44 70.37,83.00 70.53,83.55 70.51,84.13 70.49,84.70 70.28,85.24 70.08,85.78 69.71,86.23 69.35,86.67 68.86,86.98 68.37,87.28 67.81,87.42 67.25,87.55 66.67,87.50 66.10,87.45 65.57,87.21 65.04,86.98 64.62,86.59 64.19,86.20 63.91,85.69 63.64,85.19 63.53,84.62 63.43,84.05 63.51,83.48 63.60,82.91 63.86,82.40 64.12,81.89 64.53,81.48 64.95,81.08 65.46,80.83 65.98,80.58 66.56,80.50 67.13,80.43 67.69,80.55 68.26,80.66 68.76,80.95 69.26,81.24 69.64,81.67 70.02,82.11 70.24,82.64 70.46,83.17 70.50,83.75 70.55,84.32 70.40,84.88 70.25,85.44 69.94,85.92 69.62,86.40 69.17,86.76 68.72,87.12 68.17,87.31 67.63,87.50 67.05,87.51 66.48,87.52 65.93,87.35 65.38,87.17 65.38,87.17 65.38,87.17 64.00,84.72 62.62,82.27 61.53,81.76 60.44,81.25 59.96,80.18 59.48,79.12 59.80,77.04 60.12,74.95 61.00,74.13 61.88,73.30 62.40,71.81 62.92,70.32 63.93,68.80 64.93,67.28 63.69,67.42 62.45,67.56 61.16,68.05 59.87,68.54 57.29,68.89 54.72,69.24 52.74,68.82 50.76,68.40 50.01,67.39 49.26,66.38 49.27,65.25 49.27,64.12 47.88,64.28 46.49,64.45 45.30,65.00 44.11,65.54 42.91,66.05 41.71,66.56 40.60,67.12 39.49,67.67 37.57,68.36 35.66,69.06 34.35,68.89 33.05,68.72 32.15,68.01 31.25,67.29 30.68,64.91 30.11,62.54 30.90,61.64 31.69,60.74 33.46,61.00 35.23,61.26 34.99,61.52 34.75,61.77 34.46,61.96 34.16,62.15 33.83,62.26 33.51,62.37 33.16,62.40 32.81,62.43 32.47,62.38 32.12,62.33 31.80,62.19 31.48,62.06 31.20,61.85 30.92,61.64 30.69,61.38 30.47,61.11 30.32,60.79 30.17,60.48 30.10,60.14 30.02,59.80 30.03,59.45 30.05,59.10 30.14,58.77 30.23,58.43 30.41,58.13 30.58,57.82 30.45,57.90 30.33,57.98 30.87,57.05 31.42,56.12 32.04,55.03 32.67,53.94 33.44,52.77 34.22,51.60 35.01,50.62 35.80,49.63 37.23,48.46 38.66,47.28 40.44,47.48 42.23,47.68 41.97,47.91 41.72,48.14 41.42,48.29 41.11,48.45 40.78,48.53 40.45,48.61 40.11,48.61 39.77,48.61 39.44,48.53 39.11,48.45 38.81,48.29 38.51,48.13 38.25,47.90 38.00,47.68 37.80,47.40 37.61,47.11 37.49,46.80 37.37,46.48 37.33,46.14 37.29,45.80 37.33,45.46 37.37,45.12 37.49,44.81 37.62,44.49 37.81,44.21 38.00,43.93 38.10,43.81 38.19,43.69 38.96,42.81 39.74,41.92 40.62,40.77 41.49,39.63 43.18,38.20 44.87,36.78 46.53,35.03 48.20,33.29 48.52,33.17 48.84,33.05 49.18,33.01 49.52,32.97 49.86,33.01 50.21,33.05 50.53,33.17 50.85,33.29 51.13,33.49 51.41,33.69 51.64,33.94 51.87,34.20 52.03,34.51 52.19,34.81 52.27,35.14 52.35,35.48 52.35,35.82 52.35,36.17 52.27,36.50 52.19,36.83 52.03,37.14 51.86,37.44 51.64,37.70 51.41,37.96 51.12,38.15 50.84,38.35 50.13,38.23 49.42,38.11 47.87,38.72 46.31,39.33 45.06,39.95 43.81,40.57 41.98,41.51 40.15,42.44 38.41,42.97 36.66,43.49 34.71,43.77 32.76,44.04 33.93,43.50 35.10,42.95 34.79,43.20 34.49,43.45 34.13,43.62 33.77,43.79 33.38,43.86 32.99,43.94 32.60,43.92 32.20,43.91 31.82,43.80 31.44,43.68 31.10,43.48 30.75,43.28 30.47,43.01 30.19,42.73 29.97,42.40 29.76,42.06 29.64,41.69 29.52,41.31 29.49,40.91 29.46,40.52 29.52,40.13 29.59,39.74 29.74,39.37 29.90,39.01 30.14,38.69 30.38,38.38 31.39,37.66 32.39,36.95 33.37,35.88 34.34,34.81 36.06,33.30 37.78,31.78 38.18,31.78 38.57,31.78 38.96,31.87 39.34,31.96 39.69,32.15 40.05,32.33 40.34,32.59 40.64,32.85 40.87,33.18 41.09,33.50 41.24,33.87 41.38,34.24 41.43,34.63 41.48,35.03 41.43,35.42 41.39,35.81 41.25,36.18 41.11,36.55 40.89,36.88 40.66,37.21 40.37,37.47 40.07,37.74 39.72,37.92 39.37,38.11 38.99,38.21 38.61,38.30 37.11,38.45 35.62,38.60 34.41,39.10 33.20,39.60 31.72,40.00 30.24,40.40 29.09,40.51 27.93,40.61 26.01,40.48 24.09,40.36 22.99,39.30 21.89,38.24 22.50,35.10 23.11,31.96 23.88,31.05 24.65,30.13 25.71,29.25 26.78,28.37 27.71,29.50 28.63,30.64 27.05,29.61 25.46,28.57 25.32,26.78 25.19,24.98 26.62,24.20 28.06,23.42 29.08,20.83 30.11,18.24 30.51,18.22 30.90,18.20 31.29,18.28 31.68,18.36 32.04,18.52 32.40,18.69 32.70,18.94 33.01,19.19 33.25,19.50 33.49,19.82 33.65,20.18 33.81,20.55 33.87,20.94 33.94,21.33 33.91,21.72 33.88,22.12 33.75,22.49 33.63,22.87 33.42,23.20 33.21,23.54 32.93,23.82 32.64,24.09 32.30,24.29 31.96,24.49 31.58,24.60 31.20,24.72 30.47,25.05 29.73,25.38 28.82,25.99 27.91,26.60 26.89,27.13 25.87,27.67 24.82,28.22 23.77,28.77 21.85,29.46 19.93,30.16 18.56,29.57 17.20,28.98 16.57,27.28 15.94,25.59 16.67,24.20 17.41,22.82 18.53,21.66 19.64,20.49 20.54,19.46 21.44,18.43 21.97,17.43 22.49,16.43 22.74,16.10 23.00,15.77 23.32,15.51 23.65,15.25 24.02,15.07 24.40,14.90 24.81,14.82 25.22,14.74 25.63,14.76 26.05,14.78 26.44,14.90 26.84,15.02 27.20,15.23 27.56,15.44 27.86,15.73 28.15,16.02 28.37,16.38 28.59,16.73 28.72,17.13 28.85,17.52 28.88,17.94 28.91,18.35 28.83,18.76 28.76,19.17 28.60,19.55 28.43,19.93 27.84,20.23 27.26,20.53 25.61,21.47 23.96,22.41 25.16,21.02 26.35,19.63 26.24,20.02 26.13,20.41 25.93,20.76 25.73,21.12 25.45,21.41 25.17,21.71 24.83,21.93 24.48,22.15 24.10,22.28 23.71,22.41 23.31,22.45 22.90,22.48 22.50,22.42 22.10,22.36 21.72,22.20 21.35,22.04 21.02,21.80 20.69,21.56 20.43,21.24 20.17,20.93 20.00,20.56 19.82,20.20 19.74,19.80 19.65,19.40 19.66,18.99 19.68,18.59 23.04,19.18 26.39,19.78 26.28,20.17 26.17,20.56 25.97,20.92 25.77,21.27 25.49,21.57 25.21,21.87 24.86,22.09 24.52,22.31 24.13,22.44 23.74,22.57 23.34,22.61 22.93,22.64 22.53,22.58 22.12,22.52 21.75,22.36 21.37,22.20 21.04,21.96 20.71,21.72 20.45,21.40 20.19,21.09 20.01,20.72 19.84,20.35 19.75,19.95 19.67,19.55 19.68,19.14 19.69,18.73 19.91,17.43 20.12,16.12 21.06,14.78 22.00,13.44 22.96,12.93 23.93,12.42 25.42,12.46 26.91,12.50 25.67,13.39 24.43,14.28 23.43,14.87 22.44,15.47 21.19,16.03 19.94,16.59 18.61,17.14 17.27,17.70 16.18,18.19 15.08,18.68 13.31,19.41 11.55,20.13 9.69,19.83 7.83,19.53 6.99,18.48 6.15,17.43 5.89,15.68 5.63,13.94 6.65,14.43 7.67,14.92 8.94,13.58 10.22,12.23 10.17,12.62 10.13,13.01 9.99,13.37 9.86,13.73 9.64,14.06 9.42,14.38 9.13,14.64 8.84,14.90 8.50,15.08 8.15,15.26 7.78,15.36 7.40,15.45 7.01,15.45 6.62,15.45 6.24,15.36 5.87,15.27 5.52,15.09 5.18,14.92 4.88,14.66 4.59,14.40 4.37,14.09 4.15,13.77 4.01,13.40 3.87,13.04 3.82,12.66 3.77,12.27 3.79,11.77 3.80,11.27 3.84,9.81 3.88,8.36 3.89,7.04 3.90,5.71 3.10,4.21 2.3,2.70 1.15,2.68 0,2.67 -0.31,2.63 -0.63,2.59 -0.94,2.48 -1.24,2.36 -1.50,2.18 -1.77,2.00 -1.98,1.75 -2.20,1.51 -2.35,1.23 -2.49,0.94 -2.57,0.63 -2.65,0.32 -2.65,-0.00 -2.65,-0.32 -2.57,-0.63 -2.49,-0.94 -2.35,-1.23 -2.20,-1.51 -1.98,-1.76 -1.77,-2.00 -1.50,-2.18 -1.24,-2.36 -0.94,-2.48 -0.63,-2.59 -0.31,-2.63 0.00,-2.67 0.00,-2.67 L 0,-2.67 Z"></path></g><g transform="translate(225 468.11805555555566) rotate(0 8.5 143)" stroke="none"><path fill="#e03131" d="M 1.59,-0.35 Q 1.59,-0.35 2.12,2.24 2.66,4.84 2.88,7.47 3.11,10.10 3.47,12.58 3.84,15.06 3.99,17.92 4.15,20.78 4.49,23.65 4.83,26.52 4.98,29.53 5.13,32.54 5.47,34.89 5.81,37.24 5.96,39.46 6.11,41.69 6.24,43.50 6.37,45.30 6.43,47.23 6.48,49.15 6.56,50.83 6.63,52.51 6.65,54.37 6.67,56.24 6.72,57.89 6.77,59.55 6.77,61.40 6.78,63.26 6.81,64.91 6.85,66.56 6.89,68.12 6.94,69.68 7.01,70.92 7.08,72.16 7.14,73.26 7.21,74.37 7.25,75.70 7.28,77.03 7.33,78.17 7.38,79.31 7.48,81.11 7.57,82.90 7.64,84.75 7.72,86.59 7.78,88.15 7.85,89.71 7.88,91.63 7.91,93.55 7.90,94.83 7.88,96.11 7.88,97.24 7.88,98.37 7.55,99.79 7.22,101.20 7.12,102.26 7.02,103.33 6.98,104.39 6.94,105.45 6.93,107.48 6.92,109.51 6.90,110.80 6.87,112.09 6.88,113.21 6.88,114.33 6.87,116.70 6.85,119.06 6.86,120.19 6.86,121.32 6.85,123.69 6.84,126.06 6.85,127.19 6.85,128.32 6.88,130.40 6.90,132.48 6.88,133.78 6.86,135.08 6.87,136.20 6.87,137.33 6.86,139.69 6.85,142.06 6.82,143.47 6.79,144.89 6.96,146.44 7.14,147.98 7.23,149.71 7.33,151.43 7.30,153.32 7.28,155.22 7.49,157.01 7.69,158.80 7.82,160.57 7.95,162.34 8.02,163.96 8.08,165.58 8.41,166.59 8.73,167.61 8.92,169.16 9.10,170.72 9.17,172.23 9.25,173.74 9.73,176.24 10.22,178.73 10.54,180.02 10.85,181.30 11.02,182.94 11.19,184.57 11.25,186.13 11.31,187.69 11.60,188.99 11.88,190.29 12.03,191.93 12.18,193.56 12.70,196.13 13.23,198.70 13.54,199.99 13.86,201.28 14.03,202.92 14.20,204.57 14.30,205.82 14.39,207.07 14.90,209.10 15.40,211.13 15.57,212.86 15.73,214.58 16.18,216.38 16.64,218.18 16.72,219.27 16.80,220.35 17.25,222.24 17.71,224.14 17.78,225.23 17.85,226.33 18.30,228.23 18.75,230.13 18.82,231.23 18.89,232.33 19.34,234.23 19.78,236.12 19.85,237.24 19.92,238.35 19.99,240.00 20.06,241.66 20.10,242.90 20.15,244.14 20.20,245.70 20.25,247.25 20.29,248.75 20.33,250.26 20.36,251.76 20.39,253.26 20.42,254.76 20.44,256.26 20.46,257.76 20.48,259.26 20.50,260.76 20.51,262.26 20.53,263.76 20.54,265.26 20.55,266.76 20.56,268.26 20.57,269.76 20.58,271.26 20.58,272.76 20.59,274.26 20.60,275.76 20.60,277.26 20.61,278.76 20.61,280.26 20.62,283.13 20.62,286 20.53,286.57 20.43,287.15 20.16,287.67 19.88,288.19 19.46,288.59 19.03,289.00 18.50,289.24 17.97,289.49 17.38,289.55 16.80,289.62 16.23,289.49 15.65,289.36 15.15,289.06 14.65,288.76 14.27,288.31 13.89,287.86 13.67,287.32 13.45,286.77 13.42,286.19 13.39,285.60 13.55,285.04 13.70,284.47 14.03,283.99 14.36,283.50 14.83,283.14 15.30,282.79 15.85,282.60 16.41,282.42 17.00,282.42 17.58,282.42 18.14,282.60 18.69,282.79 19.16,283.15 19.63,283.50 19.96,283.99 20.29,284.47 20.44,285.04 20.60,285.60 20.57,286.19 20.54,286.78 20.32,287.32 20.10,287.87 19.72,288.31 19.34,288.76 18.84,289.06 18.34,289.37 17.76,289.49 17.19,289.62 16.61,289.55 16.02,289.49 15.49,289.24 14.96,289.00 14.53,288.59 14.11,288.19 13.83,287.67 13.56,287.15 13.46,286.57 13.37,285.99 13.37,285.99 13.37,286 13.37,283.13 13.38,280.26 13.38,278.76 13.39,277.26 13.39,275.76 13.40,274.26 13.41,272.76 13.41,271.26 13.42,269.76 13.43,268.26 13.44,266.76 13.45,265.26 13.46,263.76 13.48,262.26 13.49,260.76 13.51,259.26 13.53,257.76 13.55,256.26 13.57,254.76 13.60,253.26 13.63,251.76 13.66,250.26 13.70,248.75 13.74,247.25 13.79,245.71 13.84,244.17 13.87,242.95 13.90,241.73 13.90,240.21 13.90,238.69 13.79,237.04 13.67,235.40 13.30,234.05 12.93,232.71 12.82,231.05 12.71,229.39 12.34,228.05 11.97,226.70 11.86,225.04 11.76,223.38 11.40,222.04 11.04,220.71 10.95,219.07 10.86,217.42 10.54,215.28 10.21,213.13 10.14,211.61 10.07,210.10 9.74,208.73 9.41,207.36 9.38,206.21 9.35,205.05 9.22,203.74 9.10,202.43 8.71,200.82 8.33,199.22 8.23,198.04 8.13,196.87 7.77,195.43 7.42,194.00 7.30,192.64 7.19,191.27 6.84,189.59 6.49,187.90 6.43,186.47 6.37,185.05 6.25,183.73 6.12,182.42 5.75,180.81 5.37,179.21 5.29,178.02 5.20,176.84 4.89,175.39 4.58,173.95 4.54,172.55 4.50,171.16 4.42,169.93 4.34,168.70 4.04,167.22 3.74,165.75 3.70,164.21 3.65,162.68 3.52,161.08 3.38,159.49 2.97,157.42 2.56,155.35 2.43,153.58 2.30,151.81 2.15,150.32 2.00,148.82 1.60,146.86 1.20,144.90 1.17,143.48 1.14,142.06 1.13,139.69 1.12,137.33 1.12,136.20 1.13,135.08 1.11,133.78 1.09,132.48 1.11,130.40 1.14,128.32 1.14,127.19 1.15,126.06 1.14,123.69 1.13,121.32 1.13,120.19 1.14,119.06 1.13,116.69 1.12,114.33 1.12,113.20 1.13,112.07 1.13,109.72 1.14,107.37 1.17,106.28 1.21,105.19 1.27,103.99 1.33,102.79 1.72,100.55 2.11,98.32 2.11,97.21 2.11,96.11 2.09,94.83 2.08,93.55 2.11,91.63 2.14,89.71 2.21,88.15 2.27,86.59 2.35,84.75 2.42,82.90 2.51,81.11 2.61,79.31 2.66,78.17 2.71,77.03 2.74,75.70 2.78,74.37 2.85,73.26 2.91,72.16 2.98,70.92 3.05,69.68 3.09,68.12 3.14,66.56 3.17,64.91 3.21,63.26 3.21,61.40 3.21,59.55 3.26,57.90 3.31,56.25 3.32,54.39 3.33,52.53 3.38,50.86 3.43,49.19 3.43,47.30 3.43,45.41 3.43,43.64 3.44,41.87 3.29,39.75 3.14,37.63 2.78,35.16 2.41,32.69 2.25,29.77 2.10,26.86 1.72,23.90 1.35,20.95 1.17,18.22 1.00,15.50 0.58,12.94 0.16,10.39 -0.10,7.95 -0.36,5.50 -0.97,2.93 -1.59,0.35 -1.61,0.15 -1.63,-0.03 -1.60,-0.23 -1.57,-0.42 -1.50,-0.61 -1.43,-0.79 -1.31,-0.95 -1.19,-1.11 -1.04,-1.24 -0.89,-1.36 -0.72,-1.45 -0.54,-1.54 -0.35,-1.58 -0.15,-1.62 0.03,-1.62 0.23,-1.61 0.42,-1.56 0.61,-1.51 0.78,-1.42 0.96,-1.32 1.10,-1.19 1.24,-1.05 1.35,-0.89 1.46,-0.72 1.53,-0.54 1.59,-0.35 1.59,-0.35 L 1.59,-0.35 Z"></path></g><g transform="translate(250 471.11805555555566) rotate(0 5 3.5)" stroke="none"><path fill="#e03131" d="M 2.64,0 Q 2.64,0 2.66,1.15 2.68,2.3 3.13,3.44 3.59,4.58 3.98,5.78 4.37,6.98 5.30,6.00 6.24,5.02 7.46,4.30 8.68,3.58 8.11,2.64 7.54,1.69 8.14,2.60 8.75,3.50 7.73,2.93 6.72,2.37 5.21,2.46 3.70,2.55 1.85,3.04 -0.00,3.54 -0.42,3.48 -0.85,3.43 -1.25,3.28 -1.65,3.13 -2.00,2.88 -2.35,2.64 -2.63,2.32 -2.91,2.00 -3.11,1.62 -3.31,1.24 -3.41,0.83 -3.51,0.42 -3.51,-0.00 -3.51,-0.43 -3.41,-0.84 -3.30,-1.26 -3.10,-1.63 -2.91,-2.01 -2.62,-2.33 -2.34,-2.65 -1.99,-2.89 -1.63,-3.13 -1.24,-3.28 -0.84,-3.43 -0.41,-3.48 0.00,-3.54 1.75,-1.48 3.49,0.56 3.31,1.10 3.13,1.65 2.78,2.10 2.43,2.56 1.96,2.88 1.49,3.21 0.94,3.36 0.38,3.51 -0.18,3.48 -0.75,3.45 -1.28,3.24 -1.82,3.03 -2.25,2.66 -2.69,2.29 -2.99,1.80 -3.28,1.31 -3.41,0.75 -3.53,0.19 -3.47,-0.37 -3.41,-0.94 -3.17,-1.46 -2.93,-1.98 -2.53,-2.39 -2.14,-2.81 -1.64,-3.08 -1.13,-3.35 -0.57,-3.44 -0.00,-3.54 0.55,-3.44 1.12,-3.35 1.63,-3.08 2.13,-2.82 2.53,-2.40 2.92,-1.99 3.16,-1.47 3.40,-0.95 3.47,-0.38 3.53,0.18 3.41,0.74 3.29,1.30 2.99,1.79 2.70,2.28 2.26,2.65 1.82,3.03 1.29,3.24 0.76,3.45 0.19,3.48 -0.37,3.51 -0.92,3.36 -1.48,3.21 -1.95,2.89 -2.43,2.57 -2.77,2.11 -3.12,1.66 -3.30,1.12 -3.49,0.57 -1.74,2.05 -0.00,3.54 -0.42,3.48 -0.85,3.43 -1.25,3.28 -1.65,3.13 -2.00,2.88 -2.35,2.64 -2.63,2.32 -2.91,2.00 -3.11,1.62 -3.31,1.25 -3.41,0.83 -3.51,0.42 -3.51,-0.00 -3.51,-0.43 -3.41,-0.84 -3.30,-1.26 -3.10,-1.63 -2.91,-2.01 -2.62,-2.33 -2.34,-2.65 -1.99,-2.89 -1.64,-3.13 -1.24,-3.28 -0.84,-3.43 -0.41,-3.48 0.00,-3.54 1.88,-4.04 3.77,-4.54 4.84,-4.51 5.91,-4.49 7.29,-4.33 8.67,-4.17 10.52,-3.35 12.37,-2.54 13.13,-1.46 13.88,-0.39 14.16,0.68 14.44,1.76 14.40,2.83 14.37,3.90 14.11,5.39 13.84,6.88 12.30,8.46 10.76,10.03 9.82,10.64 8.88,11.24 7.67,11.70 6.45,12.16 5.25,12.13 4.04,12.09 2.49,11.72 0.94,11.34 -0.03,10.09 -1.00,8.84 -1.30,7.55 -1.60,6.26 -2.14,4.28 -2.68,2.3 -2.66,1.15 -2.64,0 -2.60,-0.31 -2.56,-0.63 -2.45,-0.93 -2.34,-1.22 -2.16,-1.49 -1.98,-1.75 -1.74,-1.96 -1.50,-2.17 -1.22,-2.32 -0.93,-2.47 -0.62,-2.55 -0.31,-2.62 0.00,-2.62 0.31,-2.62 0.62,-2.55 0.93,-2.47 1.22,-2.32 1.50,-2.17 1.74,-1.96 1.98,-1.75 2.16,-1.49 2.34,-1.22 2.45,-0.93 2.56,-0.63 2.60,-0.31 2.64,0.00 2.64,0.00 L 2.64,0 Z"></path></g><g transform="translate(256 524.1180555555557) rotate(0 1.5 9)" stroke="none"><path fill="#e03131" d="M 2.55,-0.42 Q 2.55,-0.42 2.77,1.30 2.99,3.04 3.14,4.43 3.29,5.82 3.83,7.60 4.37,9.37 4.54,10.64 4.71,11.91 5.34,12.77 5.97,13.62 6.50,14.58 7.02,15.54 7.87,16.89 8.72,18.23 7.38,18.34 6.04,18.45 6.32,16.25 6.61,14.04 6.56,12.86 6.51,11.67 6.50,10.20 6.49,8.73 6.47,7.23 6.46,5.73 6.45,4.23 6.44,2.73 6.29,1.47 6.15,0.20 4.90,0.41 3.64,0.61 1.94,1.04 0.24,1.47 -1.22,2.15 -2.69,2.84 -3.85,3.56 -5.00,4.29 -5.42,4.40 -5.85,4.51 -6.29,4.51 -6.73,4.52 -7.15,4.42 -7.58,4.32 -7.97,4.12 -8.36,3.92 -8.69,3.63 -9.03,3.35 -9.28,2.99 -9.53,2.63 -9.69,2.22 -9.85,1.82 -9.91,1.38 -9.97,0.95 -9.92,0.51 -9.88,0.07 -9.73,-0.33 -9.58,-0.74 -9.33,-1.10 -9.09,-1.47 -8.76,-1.76 -8.44,-2.06 -8.05,-2.27 -7.66,-2.47 -4.05,-2.79 -0.44,-3.10 0.06,-3.09 0.57,-3.08 1.04,-2.91 1.52,-2.74 1.92,-2.42 2.32,-2.11 2.59,-1.68 2.87,-1.25 2.99,-0.76 3.12,-0.27 3.08,0.23 3.04,0.73 2.85,1.20 2.65,1.67 2.31,2.05 1.98,2.43 1.54,2.68 1.10,2.93 0.60,3.03 0.10,3.13 -0.39,3.07 -0.90,3.00 -1.35,2.78 -1.81,2.55 -2.17,2.20 -2.53,1.84 -2.76,1.39 -2.99,0.94 -3.06,0.43 -3.13,-0.06 -3.04,-0.56 -2.95,-1.06 -2.70,-1.50 -2.45,-1.94 -2.08,-2.29 -1.70,-2.63 -1.24,-2.83 -0.77,-3.03 -0.27,-3.08 0.23,-3.12 0.72,-3.00 1.22,-2.88 1.65,-2.61 2.07,-2.34 2.40,-1.95 2.72,-1.56 2.89,-1.08 3.07,-0.61 3.09,-0.10 3.11,0.40 2.96,0.88 2.81,1.37 2.52,1.78 2.23,2.20 1.82,2.50 1.41,2.80 0.92,2.95 0.44,3.10 0.44,3.10 0.44,3.10 -2.28,3.69 -5.00,4.29 -5.42,4.40 -5.85,4.51 -6.29,4.51 -6.73,4.52 -7.15,4.42 -7.58,4.32 -7.97,4.12 -8.36,3.92 -8.69,3.64 -9.03,3.35 -9.28,2.99 -9.53,2.63 -9.69,2.22 -9.85,1.82 -9.91,1.38 -9.97,0.95 -9.92,0.51 -9.88,0.07 -9.73,-0.33 -9.58,-0.74 -9.33,-1.10 -9.09,-1.47 -8.76,-1.76 -8.44,-2.06 -8.05,-2.27 -7.67,-2.47 -7.54,-2.09 -7.42,-1.70 -6.35,-2.60 -5.27,-3.51 -3.26,-4.16 -1.25,-4.81 -0.34,-5.41 0.56,-6.00 1.67,-6.30 2.77,-6.59 3.85,-6.57 4.94,-6.54 6.39,-6.35 7.84,-6.16 9.12,-5.44 10.40,-4.71 11.47,-3.36 12.53,-2.00 13.04,-0.13 13.56,1.73 13.55,3.23 13.54,4.73 13.52,6.24 13.51,7.74 13.49,9.25 13.47,10.76 13.45,11.82 13.42,12.89 13.28,14.22 13.14,15.55 12.75,16.68 12.35,17.81 12.24,19.05 12.13,20.28 11.74,21.28 11.35,22.29 10.36,22.89 9.36,23.49 7.72,23.60 6.07,23.70 4.82,22.38 3.58,21.06 2.76,20.02 1.94,18.97 1.47,17.92 1.01,16.88 0.53,15.75 0.06,14.62 -0.36,12.99 -0.79,11.36 -0.86,10.21 -0.94,9.05 -1.30,7.68 -1.65,6.30 -1.75,5.08 -1.84,3.85 -2.20,2.14 -2.55,0.42 -2.57,0.11 -2.58,-0.19 -2.52,-0.50 -2.46,-0.81 -2.33,-1.09 -2.19,-1.37 -2.00,-1.62 -1.80,-1.86 -1.55,-2.05 -1.30,-2.24 -1.01,-2.36 -0.73,-2.48 -0.42,-2.53 -0.11,-2.59 0.19,-2.56 0.50,-2.54 0.80,-2.44 1.10,-2.34 1.36,-2.18 1.63,-2.01 1.84,-1.79 2.06,-1.56 2.22,-1.29 2.38,-1.02 2.47,-0.72 2.55,-0.42 2.55,-0.42 L 2.55,-0.42 Z"></path></g><g transform="translate(45 523.1180555555557) rotate(0 10.5 16)" stroke="none"><path fill="#e03131" d="M 1.89,-1.89 Q 1.89,-1.89 2.49,-1.34 3.09,-0.79 4.20,0.64 5.31,2.09 6.00,3.74 6.70,5.39 7.27,6.82 7.84,8.26 8.36,9.81 8.89,11.37 9.39,12.33 9.90,13.29 10.42,14.27 10.93,15.26 11.75,16.06 12.57,16.87 13.91,17.77 15.26,18.67 16.23,19.15 17.20,19.63 18.26,20.50 19.31,21.38 20.41,22.47 21.50,23.56 22.28,24.34 23.06,25.11 23.29,26.60 23.53,28.09 23.32,28.59 23.12,29.10 23.53,29.51 23.93,29.93 24.19,30.45 24.44,30.98 24.51,31.55 24.59,32.13 24.47,32.70 24.36,33.27 24.06,33.77 23.77,34.27 23.34,34.66 22.90,35.04 22.36,35.27 21.83,35.49 21.25,35.53 20.67,35.57 20.10,35.43 19.54,35.28 19.05,34.96 18.57,34.65 18.21,34.19 17.85,33.73 17.65,33.18 17.46,32.64 17.45,32.05 17.44,31.47 17.62,30.92 17.79,30.37 18.14,29.90 18.48,29.43 18.96,29.09 19.43,28.76 19.99,28.59 20.55,28.43 21.13,28.45 21.71,28.47 22.25,28.68 22.80,28.89 23.25,29.25 23.69,29.62 24.00,30.12 24.31,30.61 24.45,31.17 24.58,31.74 24.53,32.32 24.47,32.90 24.24,33.43 24.00,33.96 23.61,34.39 23.22,34.82 22.71,35.10 22.20,35.38 21.63,35.48 21.05,35.59 20.48,35.50 19.90,35.42 19.39,35.16 18.87,34.89 18.87,34.89 18.87,34.89 18.22,31.70 17.56,28.52 16.59,27.52 15.62,26.53 14.40,25.78 13.18,25.03 12.09,24.46 11.00,23.89 9.36,22.73 7.72,21.57 6.72,20.35 5.72,19.12 5.23,18.11 4.75,17.09 4.26,16.05 3.78,15.01 3.26,13.87 2.75,12.73 2.33,10.82 1.90,8.91 1.44,7.88 0.98,6.85 0.09,4.97 -0.79,3.09 -1.34,2.49 -1.89,1.89 -2.09,1.63 -2.29,1.38 -2.42,1.09 -2.55,0.79 -2.61,0.47 -2.67,0.16 -2.65,-0.16 -2.63,-0.48 -2.53,-0.79 -2.44,-1.09 -2.27,-1.37 -2.10,-1.65 -1.87,-1.87 -1.65,-2.10 -1.37,-2.27 -1.09,-2.44 -0.79,-2.53 -0.48,-2.63 -0.16,-2.65 0.16,-2.67 0.47,-2.61 0.79,-2.55 1.09,-2.42 1.38,-2.29 1.63,-2.09 1.89,-1.89 1.89,-1.89 L 1.89,-1.89 Z"></path></g><g transform="translate(63 613.1180555555557) rotate(0 16.5 61)" stroke="none"><path fill="#e03131" d="M 1.63,-0.54 Q 1.63,-0.54 2.44,2.06 3.25,4.66 3.92,6.29 4.59,7.91 5.20,9.49 5.82,11.07 6.59,12.84 7.35,14.61 8.03,16.27 8.71,17.94 9.50,19.75 10.29,21.56 11.17,23.50 12.05,25.44 13.00,27.75 13.95,30.06 14.92,32.48 15.88,34.89 16.86,37.36 17.84,39.83 18.55,42.08 19.27,44.32 19.90,46.10 20.52,47.88 21.12,49.49 21.72,51.09 22.30,52.27 22.88,53.45 23.46,54.87 24.04,56.28 24.37,57.59 24.70,58.89 25.35,61.33 26.01,63.76 26.60,65.92 27.20,68.09 27.29,69.51 27.39,70.93 27.45,72.10 27.51,73.26 27.82,75.01 28.14,76.75 28.33,77.96 28.52,79.17 28.67,80.90 28.81,82.62 28.88,84.29 28.94,85.96 28.98,87.49 29.03,89.02 29.06,90.40 29.10,91.79 29.53,93.55 29.97,95.32 30.47,96.87 30.98,98.43 31.29,99.53 31.61,100.63 31.92,102.22 32.23,103.81 32.65,105.09 33.07,106.38 33.37,107.49 33.67,108.60 33.97,110.22 34.28,111.83 34.69,113.10 35.10,114.37 35.27,115.75 35.44,117.13 35.97,119.36 36.49,121.59 36.47,122.16 36.44,122.72 36.23,123.26 36.03,123.79 35.66,124.22 35.30,124.66 34.81,124.96 34.32,125.26 33.77,125.38 33.21,125.51 32.65,125.45 32.08,125.39 31.56,125.16 31.04,124.92 30.63,124.54 30.21,124.15 29.94,123.65 29.67,123.14 29.57,122.58 29.47,122.02 29.56,121.46 29.65,120.90 29.91,120.39 30.18,119.89 30.59,119.49 31.00,119.10 31.51,118.85 32.03,118.61 32.59,118.54 33.16,118.48 33.72,118.60 34.27,118.71 34.76,119.00 35.25,119.29 35.63,119.73 36.00,120.16 36.21,120.68 36.43,121.21 36.46,121.78 36.50,122.35 36.35,122.90 36.20,123.45 35.89,123.92 35.57,124.40 35.12,124.74 34.67,125.09 34.13,125.28 33.59,125.46 33.02,125.47 32.45,125.47 31.91,125.30 31.37,125.12 30.91,124.78 30.46,124.44 30.13,123.97 29.81,123.50 29.65,122.95 29.50,122.40 29.50,122.40 29.50,122.40 29.28,121.41 29.07,120.42 29.18,118.77 29.29,117.12 28.43,115.25 27.56,113.38 27.48,112.18 27.40,110.99 26.92,108.99 26.43,106.99 25.95,105.00 25.46,103.02 25.08,101.37 24.69,99.72 24.21,97.65 23.73,95.58 23.31,94.40 22.89,93.22 22.91,91.69 22.92,90.16 22.96,88.94 23.01,87.72 23.05,86.17 23.09,84.62 23.11,82.88 23.12,81.14 23.06,79.68 22.99,78.21 22.70,75.80 22.40,73.38 22.41,72.28 22.41,71.18 22.32,69.10 22.22,67.02 21.86,65.67 21.51,64.33 21.44,63.23 21.37,62.13 20.91,59.85 20.46,57.57 20.02,56.18 19.58,54.80 19.13,53.45 18.68,52.10 18.20,50.45 17.72,48.80 17.17,46.99 16.62,45.18 15.92,43.04 15.21,40.90 14.20,38.45 13.18,36.01 12.18,33.63 11.17,31.25 10.17,29.04 9.18,26.83 8.19,24.90 7.21,22.97 6.31,21.09 5.41,19.22 4.82,17.61 4.23,16.01 3.36,14.14 2.50,12.27 1.98,10.70 1.47,9.13 0.83,7.40 0.19,5.68 -0.71,3.11 -1.63,0.54 -1.67,0.34 -1.71,0.13 -1.70,-0.06 -1.69,-0.27 -1.63,-0.47 -1.58,-0.67 -1.47,-0.85 -1.37,-1.03 -1.23,-1.18 -1.08,-1.33 -0.91,-1.44 -0.73,-1.55 -0.53,-1.61 -0.34,-1.68 -0.13,-1.70 0.07,-1.71 0.27,-1.68 0.47,-1.65 0.67,-1.57 0.86,-1.48 1.02,-1.36 1.19,-1.23 1.32,-1.07 1.45,-0.91 1.54,-0.73 1.63,-0.54 1.63,-0.54 L 1.63,-0.54 Z"></path></g><g transform="translate(96 599.1180555555557) rotate(0 11.5 13.5)" stroke="none"><path fill="#e03131" d="M 0,-2.64 Q 0,-2.64 1.15,-2.66 2.3,-2.68 4.03,-2.60 5.76,-2.53 6.79,-1.88 7.81,-1.24 8.36,0.38 8.90,2.01 10.54,1.52 12.18,1.03 13.73,0.09 15.28,-0.84 17.33,-0.76 19.39,-0.67 20.41,0.01 21.44,0.71 21.88,2.38 22.32,4.04 21.86,5.99 21.40,7.93 20.87,9.06 20.35,10.20 18.90,11.36 17.46,12.52 16.97,14.30 16.47,16.08 15.57,17.22 14.66,18.35 14.62,16.46 14.59,14.56 15.99,14.64 17.39,14.73 18.16,15.78 18.94,16.83 19.24,18.42 19.54,20.01 18.84,19.16 18.15,18.32 19.23,18.33 20.32,18.35 21.39,18.65 22.46,18.96 23.57,19.75 24.68,20.53 25.01,21.88 25.34,23.22 24.96,24.61 24.59,26.01 24.90,26.24 25.21,26.47 25.06,26.89 24.92,27.30 24.68,27.67 24.43,28.04 24.11,28.34 23.79,28.64 23.41,28.86 23.02,29.07 22.60,29.19 22.17,29.31 21.73,29.32 21.29,29.33 20.86,29.24 20.43,29.14 20.03,28.95 19.64,28.75 19.30,28.47 18.96,28.18 18.70,27.83 18.45,27.47 18.28,27.07 18.11,26.66 18.05,26.22 17.98,25.79 18.02,25.35 18.07,24.91 18.72,23.95 19.38,22.99 22.01,22.94 24.65,22.88 22.37,23.16 20.08,23.44 20.52,23.38 20.96,23.33 21.40,23.37 21.84,23.42 22.25,23.58 22.67,23.73 23.04,23.98 23.40,24.23 23.70,24.55 23.99,24.88 24.20,25.27 24.41,25.66 24.52,26.09 24.63,26.52 24.64,26.96 24.64,27.40 24.54,27.83 24.44,28.26 24.24,28.66 24.03,29.05 23.74,29.38 23.45,29.72 23.09,29.97 22.73,30.23 22.32,30.39 21.91,30.55 21.60,30.60 21.29,30.65 20.70,30.60 20.11,30.56 19.57,30.32 19.02,30.09 18.58,29.69 18.14,29.29 17.84,28.78 17.55,28.26 17.44,27.68 17.33,27.10 17.41,26.51 17.49,25.92 17.75,25.39 18.01,24.85 18.43,24.44 18.85,24.02 19.39,23.75 19.92,23.49 20.51,23.41 21.09,23.33 21.68,23.44 22.26,23.55 22.78,23.84 23.29,24.13 23.69,24.58 24.09,25.02 24.32,25.56 24.56,26.11 24.60,26.70 24.65,27.29 24.51,27.87 24.37,28.44 24.05,28.94 23.73,29.45 23.26,29.82 22.80,30.19 22.24,30.39 21.69,30.60 21.09,30.61 20.50,30.63 19.93,30.46 19.36,30.28 18.88,29.94 18.40,29.59 18.05,29.11 17.71,28.63 17.53,28.06 17.36,27.49 17.38,26.90 17.39,26.30 17.60,25.75 17.80,25.19 18.17,24.73 18.54,24.26 19.04,23.94 19.54,23.62 19.81,23.53 20.08,23.44 20.52,23.38 20.96,23.33 21.40,23.37 21.84,23.42 22.25,23.58 22.67,23.73 23.04,23.98 23.40,24.22 23.70,24.55 23.99,24.88 24.20,25.27 24.41,25.66 24.52,26.09 24.63,26.52 24.64,26.96 24.64,27.40 24.54,27.83 24.44,28.26 24.24,28.66 24.03,29.05 23.74,29.38 23.45,29.72 23.09,29.97 22.73,30.23 22.32,30.39 21.91,30.55 21.14,28.96 20.36,27.36 22.79,26.92 25.21,26.47 25.06,26.89 24.92,27.30 24.68,27.67 24.43,28.04 24.11,28.34 23.79,28.64 23.41,28.86 23.02,29.07 22.60,29.19 22.17,29.31 21.73,29.32 21.29,29.33 20.86,29.24 20.43,29.14 20.03,28.95 19.64,28.75 19.30,28.47 18.96,28.19 18.71,27.83 18.45,27.47 18.28,27.07 18.11,26.66 18.05,26.22 17.98,25.79 18.02,25.35 18.07,24.91 18.15,25.65 18.23,26.39 18.31,24.98 18.38,23.56 18.77,24.58 19.16,25.60 17.89,25.51 16.62,25.41 15.60,25.04 14.57,24.68 13.69,22.55 12.80,20.43 11.32,19.37 9.83,18.31 10.20,15.60 10.57,12.89 10.79,11.48 11.01,10.07 11.80,9.27 12.59,8.46 13.72,7.42 14.86,6.38 15.21,5.24 15.57,4.10 16.79,4.34 18.01,4.59 16.67,5.47 15.33,6.36 13.42,6.88 11.52,7.41 10.06,7.70 8.61,7.99 7.32,7.74 6.03,7.50 5.07,6.76 4.10,6.03 3.20,4.36 2.3,2.68 1.15,2.66 0,2.64 -0.31,2.61 -0.63,2.57 -0.93,2.45 -1.23,2.34 -1.49,2.16 -1.75,1.98 -1.96,1.74 -2.18,1.50 -2.32,1.22 -2.47,0.93 -2.55,0.62 -2.63,0.31 -2.63,-0.00 -2.63,-0.31 -2.55,-0.62 -2.47,-0.93 -2.32,-1.22 -2.18,-1.50 -1.96,-1.74 -1.75,-1.98 -1.49,-2.16 -1.23,-2.34 -0.93,-2.45 -0.63,-2.57 -0.31,-2.61 0.00,-2.64 0.00,-2.64 L 0,-2.64 Z"></path></g><g transform="translate(156 413.11805555555566) rotate(0 -30 30)" stroke="none"><path fill="#e03131" d="M 2.35,1.17 Q 2.35,1.17 1.78,2.33 1.21,3.48 0.61,4.43 0.02,5.38 -0.88,7.13 -1.78,8.88 -2.77,10.51 -3.76,12.14 -4.82,13.92 -5.88,15.70 -6.78,17.02 -7.69,18.34 -8.81,19.76 -9.93,21.17 -10.48,22.20 -11.03,23.23 -11.98,23.88 -12.93,24.54 -14.49,25.75 -16.06,26.97 -17.01,27.81 -17.95,28.66 -19.12,29.31 -20.29,29.95 -21.30,30.49 -22.30,31.03 -23.27,31.54 -24.23,32.05 -26.02,32.99 -27.82,33.93 -29.53,35.05 -31.24,36.16 -32.79,36.70 -34.34,37.24 -35.81,37.73 -37.28,38.22 -38.27,38.72 -39.26,39.21 -40.80,39.73 -42.34,40.26 -43.30,40.73 -44.26,41.20 -45.25,41.71 -46.24,42.22 -47.21,42.71 -48.17,43.20 -49.35,43.92 -50.54,44.64 -51.06,45.60 -51.58,46.57 -52.14,47.71 -52.70,48.86 -53.49,49.65 -54.28,50.45 -54.78,51.44 -55.29,52.44 -55.78,53.44 -56.28,54.44 -56.78,55.44 -57.27,56.45 -56.79,58.23 -56.30,60.01 -56.40,60.60 -56.50,61.19 -56.78,61.72 -57.06,62.24 -57.50,62.65 -57.93,63.06 -58.48,63.31 -59.02,63.56 -59.61,63.62 -60.21,63.69 -60.79,63.56 -61.38,63.42 -61.89,63.11 -62.40,62.80 -62.78,62.35 -63.17,61.89 -63.39,61.33 -63.61,60.78 -63.64,60.18 -63.67,59.58 -63.51,59.01 -63.34,58.43 -63.01,57.94 -62.67,57.44 -62.19,57.08 -61.71,56.72 -61.15,56.53 -60.58,56.34 -59.98,56.35 -59.38,56.35 -58.82,56.54 -58.25,56.73 -57.78,57.10 -57.30,57.46 -56.97,57.96 -56.63,58.46 -56.48,59.03 -56.32,59.61 -56.35,60.21 -56.39,60.80 -56.61,61.36 -56.83,61.91 -57.22,62.37 -57.61,62.82 -58.13,63.13 -58.64,63.44 -59.22,63.56 -59.81,63.69 -60.40,63.62 -61.00,63.55 -61.54,63.30 -62.08,63.05 -62.51,62.63 -62.95,62.22 -63.23,61.69 -63.50,61.16 -63.60,60.57 -63.69,59.98 -63.69,59.98 -63.69,59.98 -63.67,58.04 -63.65,56.11 -63.46,54.66 -63.28,53.22 -62.78,52.22 -62.27,51.22 -61.76,50.22 -61.26,49.22 -60.72,48.17 -60.19,47.11 -59.21,45.63 -58.24,44.14 -57.68,43.07 -57.12,42.00 -55.79,40.66 -54.46,39.32 -52.94,38.31 -51.41,37.31 -50.40,36.81 -49.39,36.31 -48.35,35.78 -47.30,35.24 -45.71,34.36 -44.11,33.48 -42.67,33.00 -41.23,32.52 -40.16,32.01 -39.10,31.49 -37.61,31.00 -36.12,30.51 -34.11,29.81 -32.11,29.11 -31.06,28.65 -30.01,28.18 -28.64,27.30 -27.28,26.41 -26.26,25.93 -25.24,25.45 -24.22,24.96 -23.19,24.47 -22.11,23.88 -21.03,23.29 -19.74,22.11 -18.45,20.93 -17.14,20.09 -15.84,19.25 -15.21,18.21 -14.58,17.17 -13.70,16.19 -12.82,15.22 -12.17,14.21 -11.52,13.19 -10.67,12.22 -9.81,11.24 -9.28,10.26 -8.75,9.27 -7.73,7.77 -6.71,6.27 -6.17,5.28 -5.63,4.30 -4.57,2.70 -3.51,1.11 -2.93,-0.03 -2.35,-1.17 -2.18,-1.44 -2.00,-1.70 -1.77,-1.92 -1.54,-2.13 -1.26,-2.29 -0.98,-2.44 -0.67,-2.52 -0.36,-2.61 -0.05,-2.61 0.26,-2.62 0.57,-2.55 0.88,-2.48 1.17,-2.34 1.45,-2.19 1.69,-1.99 1.93,-1.78 2.12,-1.52 2.31,-1.27 2.42,-0.97 2.54,-0.68 2.59,-0.36 2.63,-0.05 2.60,0.26 2.57,0.58 2.46,0.88 2.35,1.17 2.35,1.17 L 2.35,1.17 Z"></path></g><g transform="translate(170 301.11805555555566) rotate(0 -9.5 31)" stroke="none"><path fill="#e03131" d="M 2.66,0 Q 2.66,0 2.67,1.15 2.69,2.3 2.76,3.69 2.83,5.08 2.89,6.15 2.95,7.22 3.03,8.74 3.10,10.25 2.64,12.03 2.19,13.81 2.25,15.06 2.31,16.32 2.34,17.79 2.37,19.26 1.88,21.09 1.39,22.92 1.40,24.23 1.42,25.53 0.93,26.75 0.44,27.97 0.48,29.15 0.53,30.32 0.24,31.37 -0.04,32.41 -0.43,33.83 -0.82,35.25 -1.49,36.20 -2.16,37.16 -2.08,38.32 -2.00,39.48 -2.61,40.37 -3.22,41.26 -3.77,42.32 -4.31,43.38 -4.81,44.39 -5.31,45.41 -5.90,46.86 -6.49,48.32 -7.39,49.38 -8.29,50.44 -9.30,51.95 -10.32,53.46 -10.95,54.51 -11.58,55.55 -12.45,56.52 -13.31,57.48 -14.40,58.55 -15.49,59.61 -15.41,61.01 -15.33,62.42 -15.49,62.99 -15.65,63.56 -15.99,64.06 -16.33,64.55 -16.81,64.91 -17.29,65.27 -17.85,65.45 -18.42,65.64 -19.02,65.64 -19.61,65.63 -20.18,65.44 -20.74,65.25 -21.22,64.88 -21.69,64.52 -22.02,64.02 -22.35,63.52 -22.51,62.95 -22.67,62.37 -22.63,61.78 -22.59,61.18 -22.37,60.63 -22.15,60.07 -21.76,59.62 -21.37,59.17 -20.85,58.86 -20.34,58.56 -19.76,58.43 -19.17,58.31 -18.58,58.38 -17.99,58.44 -17.45,58.70 -16.91,58.95 -16.47,59.37 -16.04,59.78 -15.77,60.31 -15.49,60.84 -15.40,61.43 -15.30,62.02 -15.40,62.61 -15.50,63.19 -15.79,63.72 -16.07,64.25 -16.51,64.65 -16.94,65.06 -17.49,65.31 -18.03,65.56 -18.62,65.62 -19.22,65.68 -19.80,65.55 -20.38,65.42 -20.89,65.10 -21.40,64.79 -21.79,64.34 -22.17,63.88 -22.39,63.32 -22.60,62.77 -22.63,62.17 -22.66,61.57 -22.66,61.57 -22.66,61.57 -21.92,58.82 -21.18,56.07 -19.91,54.80 -18.65,53.53 -18.01,52.34 -17.37,51.14 -16.51,50.34 -15.64,49.54 -14.89,48.30 -14.14,47.06 -13.19,45.62 -12.23,44.17 -11.71,43.17 -11.20,42.17 -10.71,41.21 -10.22,40.25 -9.72,39.29 -9.23,38.33 -8.84,37.11 -8.45,35.89 -7.87,34.13 -7.29,32.37 -6.88,30.73 -6.47,29.10 -6.33,27.76 -6.20,26.42 -5.80,25.26 -5.41,24.10 -5.28,22.78 -5.14,21.45 -4.74,19.85 -4.34,18.24 -4.29,16.68 -4.23,15.11 -4.08,13.80 -3.94,12.50 -3.52,11.38 -3.10,10.25 -3.03,8.74 -2.95,7.22 -2.89,6.15 -2.83,5.08 -2.76,3.69 -2.69,2.3 -2.67,1.15 -2.66,0 -2.62,-0.31 -2.58,-0.63 -2.47,-0.93 -2.35,-1.23 -2.17,-1.50 -1.99,-1.76 -1.75,-1.97 -1.51,-2.19 -1.22,-2.34 -0.94,-2.48 -0.63,-2.56 -0.32,-2.64 0.00,-2.64 0.32,-2.64 0.63,-2.56 0.94,-2.48 1.22,-2.34 1.51,-2.19 1.75,-1.97 1.99,-1.76 2.17,-1.50 2.35,-1.23 2.47,-0.93 2.58,-0.63 2.62,-0.31 2.66,0.00 2.66,0.00 L 2.66,0 Z"></path></g><g transform="translate(267 295.11805555555566) rotate(0 22.5 19)" stroke="none"><path fill="#e03131" d="M 2.21,-1.47 Q 2.21,-1.47 2.81,-0.63 3.41,0.21 4.35,1.65 5.30,3.08 5.93,4.19 6.57,5.30 7.54,6.20 8.52,7.09 9.15,8.19 9.79,9.29 10.63,10.50 11.47,11.72 12.06,12.84 12.65,13.97 13.18,14.96 13.70,15.96 14.59,16.78 15.49,17.60 16.50,18.58 17.52,19.56 18.28,20.30 19.04,21.05 20.30,22.28 21.55,23.51 22.57,24.51 23.58,25.51 24.59,26.51 25.60,27.50 26.61,28.50 27.62,29.49 28.99,29.98 30.35,30.47 31.33,30.96 32.31,31.46 33.73,31.94 35.15,32.42 36.32,32.66 37.49,32.90 38.40,33.54 39.31,34.18 40.72,34.29 42.12,34.41 43.59,34.37 45.07,34.33 45.65,34.44 46.23,34.55 46.75,34.84 47.27,35.12 47.67,35.56 48.07,36.00 48.30,36.54 48.54,37.08 48.59,37.67 48.65,38.26 48.51,38.84 48.37,39.42 48.05,39.92 47.74,40.42 47.28,40.79 46.82,41.17 46.27,41.38 45.71,41.59 45.12,41.61 44.53,41.63 43.96,41.46 43.39,41.29 42.91,40.95 42.43,40.60 42.08,40.13 41.73,39.65 41.55,39.08 41.37,38.52 41.38,37.92 41.39,37.33 41.59,36.77 41.79,36.22 42.16,35.75 42.53,35.29 43.03,34.96 43.52,34.64 44.10,34.49 44.67,34.35 45.26,34.39 45.85,34.43 46.40,34.66 46.94,34.89 47.39,35.29 47.83,35.68 48.13,36.19 48.42,36.71 48.54,37.29 48.65,37.87 48.58,38.46 48.50,39.04 48.24,39.58 47.98,40.11 47.57,40.53 47.15,40.95 46.62,41.22 46.10,41.49 45.51,41.57 44.92,41.66 44.92,41.66 44.92,41.66 41.91,41.11 38.91,40.56 37.60,40.42 36.29,40.28 34.80,39.80 33.32,39.32 31.77,38.80 30.22,38.28 29.19,37.77 28.15,37.26 27.15,36.76 26.14,36.26 25.07,35.70 24.00,35.15 22.75,33.88 21.50,32.61 20.51,31.60 19.51,30.59 18.52,29.58 17.53,28.57 16.53,27.60 15.53,26.62 14.54,25.57 13.55,24.52 12.57,23.50 11.58,22.48 10.50,21.38 9.42,20.27 8.94,19.25 8.46,18.23 7.98,17.23 7.51,16.24 6.70,15.33 5.89,14.42 5.24,13.25 4.59,12.09 3.37,10.60 2.14,9.11 1.54,8.14 0.94,7.18 0.48,6.21 0.02,5.24 -0.54,4.23 -1.11,3.23 -1.66,2.35 -2.21,1.47 -2.36,1.19 -2.50,0.90 -2.58,0.59 -2.65,0.27 -2.64,-0.04 -2.64,-0.36 -2.56,-0.67 -2.47,-0.98 -2.32,-1.26 -2.17,-1.55 -1.95,-1.78 -1.73,-2.02 -1.46,-2.20 -1.20,-2.38 -0.89,-2.49 -0.59,-2.59 -0.27,-2.63 0.04,-2.66 0.36,-2.62 0.68,-2.57 0.97,-2.46 1.27,-2.34 1.53,-2.15 1.80,-1.96 2.01,-1.72 2.21,-1.47 2.21,-1.47 L 2.21,-1.47 Z"></path></g><g transform="translate(411 626.1180555555557) rotate(0 23 79.5)" stroke="none"><path fill="#e03131" d="M 1.56,-1.04 Q 1.56,-1.04 2.66,0.71 3.75,2.47 4.61,3.79 5.46,5.11 7.15,6.95 8.85,8.80 10.13,10.19 11.42,11.59 12.62,13.12 13.81,14.66 15.44,17.42 17.07,20.18 18.28,22.18 19.50,24.18 20.38,25.97 21.26,27.75 21.97,29.01 22.68,30.27 23.32,31.74 23.96,33.20 24.31,34.52 24.67,35.84 25.36,37.97 26.04,40.10 26.27,41.55 26.49,42.99 26.59,44.51 26.70,46.03 26.72,47.16 26.73,48.29 27.14,50.54 27.56,52.80 27.59,54.30 27.62,55.80 27.62,57.29 27.62,58.78 27.81,60.37 28.01,61.96 28.05,64.00 28.10,66.03 28.07,68.03 28.04,70.04 28.27,71.90 28.49,73.76 28.68,75.23 28.87,76.71 28.96,78.21 29.05,79.72 29.60,81.13 30.15,82.54 30.36,84.12 30.56,85.71 31.08,87.54 31.61,89.37 32.18,91.34 32.75,93.32 32.88,94.94 33.00,96.57 33.45,97.92 33.89,99.28 34.20,100.47 34.51,101.66 34.79,103.55 35.08,105.44 35.52,106.43 35.96,107.43 36.22,108.53 36.48,109.63 36.83,111.55 37.18,113.48 37.69,115.10 38.20,116.73 39.12,118.49 40.04,120.24 40.55,121.23 41.05,122.22 41.56,123.22 42.07,124.21 42.80,125.41 43.54,126.62 44.41,127.41 45.28,128.21 45.72,129.22 46.16,130.24 46.70,131.79 47.24,133.34 47.73,134.83 48.22,136.31 48.73,137.80 49.24,139.30 49.41,140.71 49.59,142.12 49.61,143.68 49.63,145.25 49.63,146.75 49.63,148.26 49.63,149.76 49.64,151.26 49.64,152.76 49.64,154.26 49.64,156.63 49.65,158.99 49.55,159.58 49.45,160.16 49.18,160.68 48.90,161.20 48.47,161.61 48.04,162.02 47.51,162.26 46.97,162.51 46.38,162.58 45.80,162.64 45.22,162.51 44.64,162.39 44.14,162.08 43.63,161.78 43.25,161.33 42.87,160.88 42.65,160.33 42.43,159.78 42.40,159.19 42.37,158.60 42.52,158.03 42.68,157.46 43.01,156.97 43.34,156.48 43.82,156.13 44.29,155.77 44.85,155.58 45.40,155.39 46.00,155.39 46.59,155.39 47.15,155.58 47.71,155.77 48.18,156.13 48.65,156.48 48.98,156.97 49.31,157.46 49.47,158.03 49.62,158.60 49.59,159.19 49.56,159.78 49.34,160.33 49.12,160.88 48.74,161.33 48.36,161.78 47.85,162.08 47.35,162.39 46.77,162.51 46.19,162.64 45.60,162.58 45.02,162.51 44.48,162.26 43.95,162.02 43.52,161.61 43.09,161.20 42.81,160.68 42.53,160.16 42.44,159.58 42.34,158.99 42.34,158.99 42.34,159.00 42.35,156.13 42.35,153.26 42.35,151.76 42.35,150.26 42.36,148.76 42.36,147.26 42.36,145.78 42.36,144.29 42.80,143.30 43.24,142.31 42.73,140.79 42.22,139.26 41.59,138.37 40.96,137.47 40.73,136.30 40.51,135.12 40.09,133.80 39.67,132.48 39.02,131.40 38.37,130.32 37.49,129.26 36.61,128.20 36.12,127.19 35.62,126.19 35.13,125.18 34.64,124.17 34.15,123.15 33.65,122.13 33.15,121.04 32.64,119.96 32.10,118.23 31.55,116.51 31.07,114.50 30.59,112.49 30.11,110.45 29.62,108.41 29.18,107.22 28.74,106.03 28.65,104.92 28.57,103.82 28.15,101.56 27.73,99.30 27.32,98.12 26.92,96.93 26.93,95.24 26.94,93.55 26.52,91.48 26.10,89.41 25.73,87.63 25.36,85.86 25.37,84.12 25.38,82.38 25.08,81.16 24.78,79.94 24.76,78.51 24.73,77.09 24.66,75.73 24.58,74.37 24.19,72.26 23.79,70.16 23.65,68.25 23.51,66.33 23.31,64.56 23.11,62.78 22.71,60.83 22.31,58.87 22.26,57.43 22.21,56.00 22.14,54.65 22.07,53.31 21.98,52.23 21.89,51.16 21.57,49.75 21.25,48.35 21.30,46.58 21.35,44.81 21.40,43.48 21.46,42.16 21.41,40.65 21.35,39.15 20.87,36.88 20.38,34.60 19.90,33.24 19.42,31.88 18.85,30.54 18.28,29.20 17.51,27.58 16.74,25.95 15.41,24.00 14.08,22.04 12.44,19.54 10.79,17.04 9.70,15.68 8.60,14.32 7.21,12.95 5.82,11.59 4.63,10.27 3.43,8.96 2.84,7.99 2.24,7.02 1.54,5.72 0.84,4.42 -0.36,2.73 -1.56,1.04 -1.66,0.83 -1.76,0.63 -1.81,0.41 -1.86,0.19 -1.86,-0.03 -1.85,-0.25 -1.80,-0.47 -1.74,-0.69 -1.63,-0.89 -1.52,-1.09 -1.37,-1.25 -1.22,-1.42 -1.03,-1.55 -0.84,-1.67 -0.63,-1.75 -0.41,-1.83 -0.19,-1.85 0.03,-1.87 0.25,-1.84 0.47,-1.81 0.68,-1.73 0.89,-1.64 1.08,-1.51 1.26,-1.38 1.41,-1.21 1.56,-1.04 1.56,-1.04 L 1.56,-1.04 Z"></path></g><g stroke-linecap="round" transform="translate(81.24652777777806 43.22916666666697) rotate(0 123.8888888888888 130.55555555555543)"><path d="M53.17 23.43 C62.75 13.67, 76.95 9.9, 90.37 6.39 C103.78 2.88, 119.8 1.58, 133.64 2.37 C147.48 3.16, 160.44 5.45, 173.42 11.12 C186.41 16.79, 200.85 25.86, 211.55 36.38 C222.25 46.9, 232 60.68, 237.61 74.27 C243.23 87.85, 244.14 103.25, 245.23 117.91 C246.32 132.57, 247.66 147.75, 244.16 162.25 C240.65 176.75, 232.4 192.76, 224.19 204.91 C215.98 217.05, 206.08 226.84, 194.89 235.1 C183.69 243.36, 170.52 250.02, 157.04 254.49 C143.56 258.96, 128.37 262.68, 114.01 261.91 C99.65 261.14, 83.62 256.04, 70.88 249.88 C58.14 243.72, 47.39 235.29, 37.6 224.93 C27.81 214.57, 18.45 201.06, 12.13 187.7 C5.81 174.34, 1.02 159.99, -0.32 144.79 C-1.66 129.58, 0.13 111.22, 4.08 96.47 C8.03 81.73, 14.29 69.2, 23.38 56.34 C32.47 43.48, 52.27 25.71, 58.62 19.31 C64.96 12.92, 60.61 15.93, 61.44 17.95 M63.76 13.88 C74.66 5.94, 89.51 3.77, 103.45 2.01 C117.39 0.26, 133.38 -0.09, 147.38 3.34 C161.38 6.77, 175.18 15.33, 187.45 22.6 C199.73 29.87, 212.29 36.09, 221.01 46.96 C229.73 57.83, 235.16 73.49, 239.76 87.82 C244.36 102.16, 249.18 118.15, 248.63 132.96 C248.07 147.77, 241.48 162.16, 236.43 176.68 C231.38 191.21, 227.38 208.31, 218.33 220.11 C209.27 231.91, 194.79 240.44, 182.09 247.46 C169.39 254.48, 156.25 260.61, 142.13 262.24 C128.01 263.87, 110.88 260.22, 97.38 257.25 C83.87 254.28, 73.22 251.9, 61.08 244.44 C48.94 236.99, 33.9 225.21, 24.54 212.52 C15.18 199.83, 9.48 183.06, 4.91 168.29 C0.33 153.52, -3.73 137.98, -2.91 123.9 C-2.08 109.83, 4.35 97.17, 9.84 83.83 C15.33 70.5, 20.81 55.5, 30.03 43.9 C39.25 32.3, 58.77 18.75, 65.16 14.22 C71.55 9.69, 67.26 14.71, 68.36 16.73" stroke="#e03131" stroke-width="4" fill="none"></path></g><g transform="translate(160.13541666666674 230) rotate(0 40 7.777777777777828)" stroke="none"><path fill="#e03131" d="M 2.58,-0.64 Q 2.58,-0.64 2.90,0.62 3.21,1.89 3.91,3.37 4.61,4.85 5.23,6.01 5.86,7.16 6.98,8.73 8.10,10.30 8.58,11.27 9.06,12.24 10.12,13.28 11.18,14.32 12.32,15.40 13.47,16.49 14.61,17.58 15.75,18.67 16.91,19.32 18.06,19.98 20.06,20.45 22.06,20.91 23.75,21.47 25.44,22.02 26.89,22.04 28.35,22.05 29.61,22.57 30.88,23.09 32.28,23.11 33.68,23.12 34.76,23.13 35.85,23.14 36.96,23.13 38.06,23.13 39.18,23.13 40.29,23.12 41.40,23.12 42.51,23.11 43.62,23.11 44.73,23.11 45.84,23.10 46.95,23.10 48.06,23.10 49.17,23.09 50.28,23.09 51.40,23.09 52.49,22.22 53.57,21.36 54.58,20.35 55.59,19.34 56.59,17.49 57.59,15.63 58.17,14.48 58.75,13.33 59.31,12.21 59.86,11.09 60.78,9.43 61.69,7.77 62.27,6.61 62.86,5.46 63.57,4.13 64.29,2.81 64.87,1.82 65.45,0.83 66.63,-0.84 67.80,-2.52 68.97,-3.74 70.13,-4.96 71.58,-5.97 73.04,-6.97 73.65,-8.54 74.27,-10.11 76.39,-12.24 78.51,-14.37 79.07,-14.52 79.63,-14.67 80.20,-14.64 80.78,-14.60 81.32,-14.39 81.86,-14.17 82.30,-13.79 82.74,-13.41 83.04,-12.91 83.33,-12.42 83.45,-11.85 83.58,-11.28 83.51,-10.71 83.44,-10.13 83.20,-9.60 82.95,-9.08 82.55,-8.66 82.15,-8.24 81.64,-7.97 81.12,-7.70 80.55,-7.61 79.98,-7.52 79.40,-7.62 78.83,-7.71 78.32,-7.99 77.81,-8.26 77.41,-8.69 77.02,-9.11 76.78,-9.64 76.54,-10.16 76.48,-10.74 76.42,-11.32 76.54,-11.88 76.67,-12.45 76.97,-12.95 77.27,-13.44 77.72,-13.81 78.16,-14.19 78.70,-14.40 79.24,-14.61 79.82,-14.64 80.40,-14.67 80.96,-14.51 81.52,-14.35 82.00,-14.02 82.47,-13.70 82.82,-13.23 83.17,-12.77 83.35,-12.22 83.54,-11.67 83.53,-11.09 83.53,-10.51 83.34,-9.96 83.15,-9.41 82.80,-8.95 82.45,-8.49 81.96,-8.17 81.48,-7.84 81.48,-7.84 81.48,-7.84 80.64,-6.85 79.80,-5.86 79.18,-4.68 78.56,-3.49 77.73,-2.66 76.89,-1.82 75.99,-0.91 75.08,0.00 74.04,1.05 72.99,2.10 71.89,3.76 70.78,5.42 69.74,6.94 68.69,8.45 68.12,9.56 67.55,10.67 67.00,11.79 66.44,12.92 65.87,14.07 65.29,15.21 64.73,16.35 64.16,17.48 63.55,18.71 62.94,19.95 62.55,20.99 62.15,22.02 61.36,23.23 60.57,24.43 59.38,25.57 58.18,26.72 56.86,27.56 55.53,28.39 54.60,29.02 53.67,29.65 52.53,29.94 51.40,30.23 50.28,30.23 49.17,30.23 48.06,30.23 46.95,30.22 45.84,30.22 44.73,30.22 43.62,30.21 42.51,30.21 41.40,30.21 40.28,30.20 39.17,30.20 38.05,30.19 36.93,30.18 35.80,30.17 34.59,30.15 33.39,30.13 31.88,30.03 30.38,29.93 29.08,29.47 27.77,29.02 26.61,29.00 25.45,28.97 23.71,28.39 21.98,27.81 20.39,27.28 18.80,26.74 17.38,26.59 15.95,26.43 14.76,25.80 13.57,25.17 12.78,24.36 11.99,23.54 10.90,22.40 9.81,21.26 8.72,20.11 7.63,18.96 6.46,17.73 5.28,16.50 4.41,15.39 3.53,14.29 2.47,12.57 1.42,10.86 0.87,9.63 0.33,8.41 -0.26,6.97 -0.86,5.54 -1.40,4.37 -1.93,3.21 -2.26,1.93 -2.58,0.64 -2.62,0.32 -2.66,0.00 -2.63,-0.31 -2.59,-0.62 -2.47,-0.93 -2.36,-1.23 -2.18,-1.49 -2.00,-1.76 -1.76,-1.97 -1.52,-2.19 -1.23,-2.34 -0.95,-2.49 -0.64,-2.56 -0.33,-2.64 -0.00,-2.64 0.31,-2.64 0.62,-2.57 0.93,-2.49 1.22,-2.34 1.50,-2.20 1.74,-1.98 1.99,-1.77 2.17,-1.51 2.35,-1.24 2.47,-0.94 2.58,-0.64 2.58,-0.64 L 2.58,-0.64 Z"></path></g><g transform="translate(369.02430555555566 76.66666666666674) rotate(0 28.888888888888914 3.8888888888888573)" stroke="none"><path fill="#f08c00" d="M -2.66,0 Q -2.66,0 -2.66,-1.27 -2.67,-2.55 -2.74,-4.10 -2.81,-5.65 -2.87,-6.84 -2.93,-8.03 -2.99,-9.15 -3.04,-10.28 -3.08,-11.39 -3.12,-12.51 -3.13,-13.72 -3.14,-14.94 -2.65,-16.18 -2.17,-17.42 -1.62,-18.64 -1.06,-19.86 -0.52,-21.00 0.01,-22.13 0.55,-23.26 1.10,-24.38 1.64,-25.50 2.19,-26.62 2.73,-27.74 3.28,-28.85 3.83,-29.97 4.37,-31.09 5.02,-32.30 5.66,-33.51 6.81,-34.76 7.97,-36.01 9.03,-36.66 10.09,-37.31 11.59,-38.28 13.09,-39.26 14.37,-40.52 15.65,-41.79 16.90,-42.44 18.14,-43.08 19.34,-43.20 20.54,-43.33 21.63,-43.79 22.72,-44.26 24.19,-44.41 25.66,-44.55 26.84,-44.58 28.03,-44.60 29.15,-44.61 30.28,-44.62 31.39,-44.63 32.51,-44.63 33.62,-44.64 34.73,-44.65 35.84,-44.65 36.95,-44.65 38.93,-44.11 40.91,-43.56 42.62,-42.99 44.33,-42.43 45.54,-41.84 46.74,-41.26 48.05,-40.07 49.37,-38.88 50.50,-37.75 51.63,-36.62 52.73,-35.50 53.84,-34.38 54.85,-32.89 55.85,-31.40 56.62,-30.57 57.39,-29.73 58.02,-28.54 58.65,-27.35 58.85,-25.82 59.05,-24.29 59.07,-23.12 59.09,-21.95 59.61,-20.44 60.13,-18.92 60.18,-17.67 60.23,-16.43 60.24,-15.29 60.24,-14.16 60.25,-13.04 60.25,-11.93 60.25,-10.82 60.25,-9.71 60.25,-8.59 60.25,-7.48 60.25,-6.37 60.25,-5.26 60.25,-4.15 60.25,-3.04 60.26,-1.93 60.26,-0.82 60.26,0.28 60.26,1.40 60.26,2.51 60.26,3.62 60.26,4.73 60.26,5.84 60.26,6.95 60.26,8.06 60.26,9.17 60.26,10.28 60.26,11.40 60.26,12.51 60.66,14.31 61.06,16.10 60.67,18.46 60.28,20.82 59.32,22.65 58.36,24.48 57.77,25.64 57.17,26.80 57.03,27.86 56.89,28.92 56.33,30.05 55.77,31.18 55.21,32.29 54.65,33.40 54.09,34.51 53.53,35.62 52.57,36.76 51.62,37.91 50.41,39.11 49.19,40.31 48.52,41.49 47.84,42.66 46.77,44.21 45.71,45.76 44.53,47.03 43.35,48.30 41.66,49.49 39.96,50.68 38.30,50.96 36.64,51.25 35.42,51.28 34.20,51.32 31.46,51.45 28.72,51.58 27.70,51.16 26.68,50.74 24.87,49.80 23.06,48.86 22.29,47.75 21.52,46.65 21.24,45.06 20.97,43.46 20.06,42.20 19.16,40.94 18.33,40.10 17.51,39.27 16.37,38.12 15.23,36.96 14.41,36.16 13.59,35.35 12.59,34.28 11.59,33.21 10.95,32.12 10.32,31.03 9.69,29.82 9.07,28.60 8.05,27.56 7.03,26.52 6.13,25.06 5.23,23.61 4.43,22.81 3.63,22.01 3.00,20.82 2.38,19.62 1.80,17.93 1.23,16.25 0.69,15.14 0.14,14.03 -0.43,12.32 -1.00,10.61 -1.10,9.41 -1.20,8.21 -1.24,6.81 -1.28,5.41 -1.29,4.24 -1.30,3.07 -1.31,1.94 -1.32,0.82 -1.03,-0.86 -0.74,-2.55 -0.72,-2.21 -0.70,-1.87 -0.64,-2.29 -0.59,-2.72 -0.44,-3.12 -0.29,-3.52 -0.04,-3.88 0.19,-4.23 0.51,-4.51 0.83,-4.80 1.21,-5.00 1.59,-5.20 2.01,-5.30 2.43,-5.40 2.86,-5.40 3.29,-5.40 3.70,-5.30 4.12,-5.20 4.50,-5.00 4.88,-4.80 5.20,-4.52 5.52,-4.23 5.77,-3.88 6.01,-3.52 6.16,-3.12 6.32,-2.72 6.37,-2.29 6.42,-1.87 4.10,0.43 1.79,2.74 1.31,2.95 0.82,3.17 0.29,3.22 -0.23,3.26 -0.74,3.14 -1.26,3.02 -1.71,2.74 -2.16,2.46 -2.49,2.05 -2.83,1.64 -3.02,1.14 -3.21,0.65 -3.23,0.12 -3.25,-0.40 -3.10,-0.91 -2.95,-1.42 -2.64,-1.85 -2.34,-2.29 -1.91,-2.60 -1.48,-2.92 -0.98,-3.08 -0.47,-3.24 0.05,-3.23 0.58,-3.22 1.08,-3.04 1.58,-2.87 1.99,-2.54 2.41,-2.21 2.70,-1.77 2.99,-1.32 3.13,-0.81 3.26,-0.30 3.22,0.22 3.18,0.75 2.98,1.24 2.78,1.73 2.43,2.13 2.08,2.53 1.62,2.79 1.16,3.06 0.64,3.16 0.12,3.27 -0.40,3.20 -0.92,3.14 -1.40,2.91 -1.88,2.68 -2.26,2.31 -2.64,1.94 -2.88,1.46 -3.12,0.99 -3.19,0.47 -3.27,-0.05 -3.18,-0.57 -3.08,-1.09 -2.83,-1.56 -2.57,-2.02 -2.18,-2.38 -1.79,-2.74 -1.79,-2.74 -1.79,-2.74 -1.24,-2.30 -0.70,-1.87 -0.64,-2.29 -0.59,-2.72 -0.44,-3.12 -0.29,-3.52 -0.04,-3.88 0.19,-4.23 0.51,-4.51 0.83,-4.80 1.21,-5.00 1.59,-5.20 2.01,-5.30 2.43,-5.40 2.86,-5.40 3.28,-5.40 3.70,-5.30 4.12,-5.20 4.50,-5.00 4.88,-4.80 5.20,-4.52 5.52,-4.23 5.77,-3.88 6.01,-3.52 6.16,-3.12 6.32,-2.72 6.37,-2.29 6.42,-1.87 6.09,-1.08 5.77,-0.28 5.76,0.82 5.76,1.93 5.76,3.04 5.76,4.16 5.77,5.30 5.78,6.44 5.78,7.70 5.77,8.96 6.31,10.57 6.86,12.17 7.43,13.33 8.00,14.49 8.48,15.97 8.97,17.44 9.71,18.64 10.46,19.83 11.38,20.80 12.29,21.78 13.45,23.03 14.61,24.28 15.16,25.35 15.71,26.43 16.27,27.37 16.82,28.30 17.91,29.53 18.99,30.75 19.64,31.88 20.29,33.01 21.45,34.13 22.62,35.25 23.52,35.81 24.43,36.36 25.66,38.20 26.88,40.03 27.71,41.79 28.54,43.54 30.07,44.57 31.60,45.60 30.34,45.46 29.08,45.31 31.05,44.76 33.02,44.21 34.56,44.19 36.10,44.17 37.15,43.78 38.20,43.39 39.24,42.30 40.28,41.21 41.38,39.59 42.47,37.97 43.29,37.16 44.11,36.36 45.21,35.27 46.30,34.18 47.12,32.81 47.94,31.43 48.48,30.33 49.03,29.22 49.41,28.20 49.80,27.18 50.40,26.25 51.00,25.32 51.85,23.80 52.70,22.27 53.21,21.20 53.72,20.12 53.94,18.86 54.17,17.59 53.62,15.61 53.06,13.62 53.06,12.51 53.06,11.40 53.06,10.28 53.06,9.17 53.07,8.06 53.07,6.95 53.07,5.84 53.07,4.73 53.07,3.62 53.07,2.51 53.07,1.40 53.07,0.28 53.07,-0.82 53.07,-1.93 53.07,-3.04 53.07,-4.15 53.07,-5.26 53.07,-6.37 53.07,-7.48 53.07,-8.59 53.07,-9.70 53.07,-10.82 53.07,-11.92 53.07,-13.03 53.07,-14.13 53.07,-15.23 53.45,-16.51 53.84,-17.80 53.21,-18.72 52.58,-19.65 52.29,-20.77 51.99,-21.89 52.44,-23.13 52.89,-24.37 52.35,-25.46 51.81,-26.55 50.38,-28.01 48.95,-29.47 47.83,-30.57 46.72,-31.66 45.63,-32.71 44.54,-33.77 43.59,-34.73 42.65,-35.69 41.05,-36.22 39.45,-36.75 37.64,-37.15 35.84,-37.56 34.73,-37.57 33.62,-37.57 32.51,-37.58 31.40,-37.58 30.29,-37.59 29.19,-37.59 27.59,-37.59 25.99,-37.58 24.93,-37.54 23.86,-37.49 22.02,-37.04 20.17,-36.58 19.20,-36.00 18.23,-35.42 16.45,-33.81 14.68,-32.20 13.73,-31.68 12.79,-31.16 11.79,-30.21 10.79,-29.25 10.23,-28.14 9.66,-27.04 9.10,-25.93 8.53,-24.82 7.96,-23.71 7.40,-22.61 6.83,-21.50 6.26,-20.40 5.69,-19.30 5.13,-18.21 4.58,-17.16 4.04,-16.11 3.58,-14.31 3.12,-12.51 3.08,-11.39 3.04,-10.28 2.99,-9.15 2.93,-8.03 2.87,-6.84 2.81,-5.65 2.74,-4.10 2.67,-2.55 2.66,-1.27 2.66,0 2.62,0.31 2.58,0.63 2.47,0.93 2.36,1.23 2.17,1.50 1.99,1.76 1.75,1.98 1.51,2.19 1.22,2.34 0.94,2.49 0.63,2.56 0.32,2.64 -0.00,2.64 -0.32,2.64 -0.63,2.56 -0.94,2.49 -1.22,2.34 -1.51,2.19 -1.75,1.98 -1.99,1.76 -2.17,1.50 -2.36,1.23 -2.47,0.93 -2.58,0.63 -2.62,0.31 -2.66,-0.00 -2.66,-0.00 L -2.66,0 Z"></path></g><g transform="translate(397.91319444444457 125.55555555555566) rotate(0 -0.5555555555555429 18.888888888888914)" stroke="none"><path fill="#f08c00" d="M 2.40,0.40 Q 2.40,0.40 1.99,2.30 1.57,4.20 1.41,5.87 1.25,7.54 1.23,8.90 1.21,10.25 1.19,11.77 1.17,13.29 1.20,14.58 1.22,15.87 1.26,17.06 1.30,18.24 1.40,19.74 1.49,21.23 1.57,22.41 1.65,23.59 1.72,24.71 1.79,25.84 1.84,26.95 1.90,28.06 1.94,29.17 1.99,30.28 2.02,31.40 2.06,32.51 2.09,33.62 2.13,34.73 2.14,36.25 2.16,37.77 2.07,38.30 1.99,38.82 1.74,39.29 1.49,39.75 1.10,40.12 0.72,40.48 0.24,40.70 -0.23,40.93 -0.76,40.98 -1.28,41.04 -1.80,40.93 -2.32,40.81 -2.77,40.54 -3.22,40.27 -3.57,39.86 -3.91,39.46 -4.11,38.97 -4.30,38.48 -4.33,37.95 -4.36,37.42 -4.22,36.91 -4.08,36.40 -3.78,35.96 -3.48,35.52 -3.06,35.20 -2.64,34.88 -2.14,34.71 -1.64,34.54 -1.11,34.54 -0.58,34.54 -0.07,34.71 0.42,34.88 0.84,35.20 1.26,35.52 1.56,35.96 1.85,36.40 2.00,36.91 2.14,37.42 2.11,37.95 2.08,38.48 1.88,38.97 1.69,39.46 1.34,39.86 1.00,40.27 0.55,40.54 0.09,40.81 -0.41,40.93 -0.93,41.04 -1.46,40.98 -1.98,40.93 -2.46,40.70 -2.94,40.48 -3.33,40.12 -3.71,39.75 -3.96,39.28 -4.21,38.82 -4.29,38.29 -4.38,37.77 -4.38,37.77 -4.38,37.77 -4.36,36.25 -4.35,34.73 -4.32,33.62 -4.29,32.51 -4.25,31.40 -4.21,30.28 -4.16,29.17 -4.12,28.06 -4.06,26.95 -4.01,25.83 -3.94,24.71 -3.88,23.59 -3.80,22.41 -3.71,21.22 -3.61,19.72 -3.51,18.23 -3.46,17.03 -3.42,15.84 -3.37,14.53 -3.32,13.22 -3.29,11.64 -3.26,10.07 -3.17,8.64 -3.07,7.21 -2.96,5.33 -2.85,3.46 -2.63,1.53 -2.40,-0.40 -2.32,-0.68 -2.24,-0.96 -2.09,-1.22 -1.94,-1.47 -1.74,-1.68 -1.53,-1.89 -1.28,-2.05 -1.03,-2.21 -0.75,-2.30 -0.47,-2.39 -0.18,-2.41 0.10,-2.44 0.39,-2.39 0.68,-2.34 0.95,-2.22 1.22,-2.11 1.46,-1.93 1.69,-1.75 1.88,-1.52 2.06,-1.29 2.19,-1.03 2.32,-0.76 2.37,-0.47 2.43,-0.18 2.42,0.10 2.40,0.40 2.40,0.40 L 2.40,0.40 Z"></path></g><g transform="translate(416.8020833333335 118.88888888888891) rotate(0 -7.222222222222285 21.111111111111086)" stroke="none"><path fill="#f08c00" d="M 2.63,0 Q 2.63,0 2.59,1.59 2.55,3.19 2.63,4.93 2.71,6.67 2.77,8.35 2.83,10.03 2.87,11.62 2.91,13.21 2.49,14.47 2.08,15.73 2.04,17.40 2.01,19.06 2.02,20.68 2.02,22.29 2.05,23.49 2.09,24.69 2.12,25.82 2.14,26.94 2.17,28.06 2.19,29.17 2.22,30.28 2.24,31.40 2.26,32.51 2.27,33.62 2.29,34.73 2.30,35.84 2.32,36.95 2.33,38.06 2.06,39.74 1.78,41.42 0.99,42.51 0.20,43.61 -0.80,43.97 -1.80,44.33 -2.80,44.85 -3.80,45.36 -5.29,45.53 -6.78,45.69 -7.96,45.72 -9.14,45.74 -10.27,45.75 -11.39,45.76 -12.91,45.76 -14.44,45.77 -15.01,45.68 -15.57,45.58 -16.08,45.32 -16.59,45.05 -16.98,44.63 -17.38,44.21 -17.62,43.69 -17.86,43.17 -17.92,42.60 -17.99,42.03 -17.86,41.46 -17.74,40.90 -17.44,40.41 -17.15,39.92 -16.71,39.55 -16.27,39.17 -15.74,38.96 -15.20,38.75 -14.63,38.72 -14.06,38.69 -13.50,38.84 -12.95,38.99 -12.47,39.32 -12.00,39.64 -11.65,40.10 -11.30,40.55 -11.12,41.10 -10.93,41.64 -10.93,42.22 -10.93,42.79 -11.12,43.34 -11.30,43.88 -11.65,44.34 -12.00,44.80 -12.47,45.12 -12.95,45.44 -13.50,45.60 -14.06,45.75 -14.63,45.72 -15.20,45.69 -15.74,45.47 -16.27,45.26 -16.71,44.89 -17.15,44.52 -17.44,44.02 -17.74,43.53 -17.86,42.97 -17.99,42.41 -17.92,41.84 -17.86,41.27 -17.62,40.75 -17.38,40.22 -16.98,39.81 -16.59,39.39 -16.08,39.12 -15.57,38.85 -15.01,38.76 -14.44,38.66 -14.44,38.66 -14.44,38.66 -12.37,38.67 -10.30,38.68 -8.72,38.67 -7.13,38.66 -5.85,38.92 -4.56,39.17 -4.55,38.06 -4.54,36.95 -4.53,35.84 -4.51,34.73 -4.50,33.62 -4.48,32.51 -4.46,31.40 -4.44,30.28 -4.42,29.17 -4.39,28.06 -4.36,26.94 -4.34,25.82 -4.30,24.66 -4.27,23.51 -4.23,22.15 -4.19,20.80 -4.13,19.08 -4.07,17.36 -3.97,16.23 -3.87,15.10 -3.39,14.05 -2.91,12.99 -2.87,11.51 -2.83,10.03 -2.77,8.35 -2.71,6.67 -2.63,4.93 -2.55,3.19 -2.59,1.59 -2.63,0 -2.59,-0.31 -2.56,-0.63 -2.44,-0.92 -2.33,-1.22 -2.15,-1.48 -1.97,-1.74 -1.73,-1.96 -1.49,-2.17 -1.21,-2.31 -0.93,-2.46 -0.62,-2.54 -0.31,-2.61 0.00,-2.61 0.31,-2.61 0.62,-2.54 0.93,-2.46 1.21,-2.31 1.49,-2.17 1.73,-1.96 1.97,-1.74 2.15,-1.48 2.33,-1.22 2.44,-0.92 2.56,-0.63 2.59,-0.31 2.63,0.00 2.63,0.00 L 2.63,0 Z"></path></g><g transform="translate(439.02430555555566 23.33333333333337) rotate(0 -3.3333333333333712 7.2222222222222285)" stroke="none"><path fill="#f08c00" d="M 2.43,0.97 Q 2.43,0.97 1.73,2.54 1.03,4.11 0.32,6.05 -0.39,8.00 -0.95,9.33 -1.51,10.66 -2.03,11.84 -2.55,13.02 -3.22,14.28 -3.89,15.53 -4.14,15.95 -4.39,16.36 -4.75,16.67 -5.12,16.99 -5.56,17.17 -6.01,17.35 -6.49,17.37 -6.97,17.40 -7.44,17.27 -7.90,17.15 -8.30,16.88 -8.70,16.61 -9.00,16.23 -9.29,15.84 -9.44,15.39 -9.60,14.93 -9.60,14.45 -9.60,13.97 -9.45,13.51 -9.30,13.05 -9.01,12.67 -8.72,12.28 -8.32,12.01 -7.92,11.74 -7.46,11.61 -6.99,11.48 -6.51,11.50 -6.03,11.53 -5.58,11.71 -5.13,11.88 -4.77,12.19 -4.40,12.50 -4.15,12.92 -3.90,13.33 -3.79,13.80 -3.69,14.27 -3.74,14.75 -3.79,15.23 -3.99,15.66 -4.19,16.10 -4.52,16.45 -4.85,16.80 -5.28,17.03 -5.70,17.26 -6.18,17.34 -6.65,17.42 -7.13,17.34 -7.60,17.26 -8.03,17.04 -8.46,16.82 -8.79,16.47 -9.12,16.12 -9.32,15.68 -9.53,15.24 -9.58,14.77 -9.64,14.29 -9.53,13.82 -9.43,13.35 -9.43,13.35 -9.43,13.35 -8.18,11.38 -6.92,9.40 -6.30,8.27 -5.67,7.14 -4.98,5.82 -4.29,4.49 -3.94,3.38 -3.59,2.27 -3.01,0.64 -2.43,-0.97 -2.28,-1.25 -2.13,-1.52 -1.91,-1.76 -1.70,-1.99 -1.44,-2.16 -1.17,-2.34 -0.87,-2.45 -0.58,-2.55 -0.26,-2.58 0.04,-2.62 0.36,-2.57 0.67,-2.53 0.96,-2.41 1.26,-2.29 1.51,-2.11 1.77,-1.93 1.97,-1.69 2.18,-1.45 2.32,-1.16 2.46,-0.88 2.53,-0.57 2.60,-0.26 2.60,0.04 2.59,0.36 2.51,0.66 2.43,0.97 2.43,0.97 L 2.43,0.97 Z"></path></g><g transform="translate(446.8020833333335 37.77777777777783) rotate(0 -4.444444444444457 9.444444444444457)" stroke="none"><path fill="#f08c00" d="M 2.41,0.96 Q 2.41,0.96 1.71,2.54 1.02,4.11 0.37,5.28 -0.26,6.45 -0.81,8.46 -1.35,10.46 -1.94,11.48 -2.52,12.50 -3.10,13.82 -3.69,15.14 -4.51,16.83 -5.33,18.51 -6.31,20.00 -7.29,21.49 -7.75,21.68 -8.21,21.86 -8.70,21.89 -9.19,21.93 -9.67,21.80 -10.15,21.67 -10.56,21.39 -10.97,21.12 -11.27,20.73 -11.57,20.34 -11.74,19.87 -11.90,19.40 -11.90,18.91 -11.90,18.41 -11.75,17.94 -11.59,17.47 -11.30,17.08 -11.00,16.68 -10.59,16.40 -10.19,16.12 -9.71,15.98 -9.24,15.85 -8.74,15.87 -8.25,15.89 -7.79,16.07 -7.33,16.25 -6.95,16.57 -6.57,16.89 -6.31,17.31 -6.05,17.73 -5.94,18.21 -5.83,18.70 -5.88,19.19 -5.93,19.68 -6.14,20.13 -6.34,20.58 -6.68,20.94 -7.02,21.30 -7.45,21.54 -7.89,21.77 -8.37,21.86 -8.86,21.94 -9.35,21.86 -9.84,21.79 -10.28,21.56 -10.72,21.33 -11.06,20.97 -11.40,20.62 -11.61,20.17 -11.82,19.72 -11.88,19.23 -11.94,18.74 -11.83,18.26 -11.73,17.77 -11.48,17.35 -11.23,16.92 -10.85,16.60 -10.48,16.28 -10.48,16.28 -10.48,16.28 -9.78,15.51 -9.07,14.75 -8.75,13.37 -8.42,11.98 -7.76,10.80 -7.10,9.62 -6.30,8.17 -5.49,6.71 -4.53,4.49 -3.57,2.27 -2.99,0.65 -2.41,-0.96 -2.26,-1.24 -2.11,-1.51 -1.90,-1.74 -1.69,-1.97 -1.42,-2.15 -1.16,-2.32 -0.87,-2.43 -0.57,-2.53 -0.26,-2.57 0.04,-2.60 0.35,-2.55 0.66,-2.51 0.95,-2.39 1.25,-2.28 1.50,-2.09 1.76,-1.91 1.96,-1.67 2.16,-1.43 2.30,-1.15 2.44,-0.87 2.51,-0.57 2.58,-0.26 2.58,0.04 2.57,0.36 2.49,0.66 2.41,0.96 2.41,0.96 L 2.41,0.96 Z"></path></g><g transform="translate(370.13541666666674 13.333333333333371) rotate(0 2.7777777777778283 10)" stroke="none"><path fill="#f08c00" d="M 2.41,-0.80 Q 2.41,-0.80 2.92,1.15 3.44,3.11 4.00,4.49 4.57,5.88 4.92,6.93 5.27,7.99 5.97,9.80 6.68,11.61 7.37,13.36 8.06,15.11 8.27,17.52 8.49,19.93 8.42,20.40 8.35,20.87 8.14,21.30 7.92,21.72 7.59,22.06 7.25,22.39 6.82,22.60 6.39,22.81 5.92,22.87 5.45,22.93 4.99,22.84 4.52,22.74 4.11,22.51 3.70,22.27 3.38,21.92 3.07,21.56 2.88,21.12 2.70,20.68 2.66,20.21 2.63,19.74 2.74,19.28 2.86,18.82 3.12,18.42 3.38,18.02 3.75,17.72 4.12,17.43 4.57,17.27 5.02,17.11 5.49,17.10 5.97,17.09 6.42,17.23 6.87,17.37 7.26,17.65 7.64,17.93 7.92,18.32 8.19,18.71 8.33,19.16 8.46,19.62 8.45,20.09 8.43,20.57 8.26,21.01 8.10,21.46 7.80,21.83 7.50,22.19 7.09,22.45 6.69,22.70 6.23,22.81 5.77,22.92 5.30,22.88 4.82,22.84 4.39,22.65 3.95,22.46 3.60,22.14 3.25,21.82 3.02,21.40 2.79,20.99 2.70,20.52 2.61,20.05 2.61,20.06 2.61,20.06 2.64,18.05 2.66,16.05 2.18,14.97 1.71,13.90 1.61,12.76 1.52,11.62 0.93,9.61 0.34,7.59 -0.27,6.07 -0.88,4.55 -1.65,2.67 -2.41,0.80 -2.47,0.50 -2.53,0.20 -2.52,-0.10 -2.50,-0.40 -2.42,-0.70 -2.33,-0.99 -2.18,-1.26 -2.03,-1.52 -1.81,-1.74 -1.60,-1.96 -1.34,-2.13 -1.08,-2.29 -0.79,-2.39 -0.50,-2.48 -0.20,-2.51 0.10,-2.53 0.40,-2.48 0.70,-2.44 0.98,-2.32 1.27,-2.19 1.51,-2.01 1.76,-1.83 1.95,-1.59 2.14,-1.35 2.27,-1.08 2.41,-0.80 2.41,-0.80 L 2.41,-0.80 Z"></path></g><g transform="translate(334.5798611111111 31.111111111111086) rotate(0 10.555555555555657 6.666666666666686)" stroke="none"><path fill="#f08c00" d="M 1.55,-1.86 Q 1.55,-1.86 3.37,-0.15 5.19,1.55 6.85,2.92 8.51,4.28 9.49,4.70 10.48,5.11 11.59,5.61 12.70,6.11 14.29,6.71 15.88,7.31 17.07,8.11 18.26,8.91 19.62,9.57 20.99,10.22 21.59,10.43 22.19,10.65 22.59,10.89 22.99,11.13 23.29,11.49 23.59,11.85 23.76,12.28 23.93,12.72 23.96,13.19 23.98,13.65 23.85,14.10 23.73,14.55 23.46,14.94 23.20,15.33 22.82,15.61 22.45,15.89 22.01,16.04 21.56,16.18 21.09,16.18 20.63,16.18 20.18,16.03 19.74,15.88 19.37,15.59 19.00,15.31 18.74,14.92 18.48,14.53 18.35,14.08 18.23,13.63 18.26,13.16 18.28,12.70 18.46,12.26 18.63,11.83 18.94,11.47 19.24,11.12 19.65,10.88 20.05,10.64 20.50,10.54 20.96,10.44 21.43,10.49 21.89,10.55 22.31,10.74 22.74,10.94 23.08,11.26 23.42,11.59 23.63,12.00 23.85,12.42 23.92,12.88 24.00,13.34 23.92,13.80 23.84,14.26 23.62,14.68 23.40,15.09 23.06,15.41 22.72,15.73 22.29,15.92 21.87,16.12 21.40,16.17 20.94,16.21 20.48,16.11 20.02,16.01 20.02,16.01 20.03,16.01 18.10,14.69 16.17,13.38 14.73,12.41 13.29,11.44 12.01,10.72 10.72,10.01 9.64,9.39 8.56,8.78 7.40,8.07 6.23,7.37 4.35,6.10 2.46,4.83 0.45,3.34 -1.55,1.86 -1.75,1.64 -1.95,1.43 -2.09,1.18 -2.23,0.92 -2.31,0.64 -2.39,0.36 -2.40,0.07 -2.41,-0.21 -2.35,-0.50 -2.29,-0.79 -2.16,-1.05 -2.03,-1.31 -1.84,-1.53 -1.66,-1.76 -1.42,-1.93 -1.19,-2.11 -0.92,-2.22 -0.65,-2.33 -0.36,-2.37 -0.07,-2.42 0.21,-2.39 0.50,-2.36 0.78,-2.27 1.06,-2.17 1.30,-2.01 1.55,-1.86 1.55,-1.86 L 1.55,-1.86 Z"></path></g><g transform="translate(343.46875 55.55555555555554) rotate(0 5.555555555555543 10.5555555555556)" stroke="none"><path fill="#f08c00" d="M 2.22,-1.48 Q 2.22,-1.48 2.88,-0.52 3.53,0.42 3.98,1.41 4.42,2.40 5.18,4.25 5.93,6.10 6.53,7.20 7.14,8.31 7.75,9.97 8.37,11.63 8.94,12.70 9.50,13.77 10.08,14.87 10.65,15.97 12.09,17.40 13.52,18.82 13.82,19.27 14.12,19.71 14.27,20.23 14.41,20.75 14.38,21.29 14.35,21.82 14.15,22.32 13.95,22.82 13.60,23.23 13.26,23.64 12.79,23.92 12.33,24.19 11.81,24.31 11.28,24.42 10.75,24.37 10.21,24.31 9.73,24.08 9.24,23.85 8.85,23.48 8.46,23.11 8.21,22.64 7.96,22.16 7.87,21.63 7.78,21.10 7.87,20.57 7.96,20.04 8.21,19.57 8.46,19.09 8.85,18.72 9.24,18.35 9.73,18.13 10.22,17.90 10.75,17.85 11.29,17.79 11.81,17.90 12.34,18.02 12.80,18.30 13.26,18.58 13.61,18.99 13.95,19.40 14.15,19.90 14.35,20.39 14.38,20.93 14.41,21.47 14.26,21.99 14.12,22.50 13.82,22.95 13.52,23.39 13.09,23.72 12.66,24.04 12.15,24.21 11.64,24.39 11.10,24.38 10.57,24.38 10.06,24.21 9.55,24.04 9.12,23.71 8.69,23.39 8.69,23.39 8.69,23.39 7.15,21.67 5.61,19.96 5.06,18.81 4.51,17.66 3.97,16.52 3.43,15.39 2.90,14.21 2.36,13.03 1.86,11.37 1.36,9.72 0.84,8.51 0.31,7.31 -0.33,5.35 -0.98,3.40 -1.60,2.44 -2.22,1.48 -2.37,1.19 -2.51,0.90 -2.59,0.59 -2.66,0.27 -2.65,-0.04 -2.65,-0.36 -2.56,-0.67 -2.48,-0.98 -2.33,-1.27 -2.17,-1.55 -1.96,-1.79 -1.74,-2.03 -1.47,-2.21 -1.20,-2.39 -0.90,-2.49 -0.59,-2.60 -0.27,-2.64 0.04,-2.67 0.36,-2.63 0.68,-2.58 0.98,-2.46 1.28,-2.35 1.54,-2.16 1.80,-1.97 2.01,-1.72 2.22,-1.48 2.22,-1.48 L 2.22,-1.48 Z"></path></g><g transform="translate(401.2465277777778 10) rotate(0 -0.5555555555555429 7.2222222222222285)" stroke="none"><path fill="#f08c00" d="M 2.53,0.84 Q 2.53,0.84 2.24,1.81 1.95,2.77 1.90,4.34 1.85,5.92 1.89,7.00 1.92,8.08 1.97,9.18 2.01,10.29 2.04,12.36 2.08,14.44 2.00,14.95 1.91,15.46 1.67,15.92 1.43,16.37 1.05,16.73 0.68,17.08 0.21,17.30 -0.25,17.52 -0.77,17.57 -1.28,17.63 -1.78,17.52 -2.29,17.41 -2.73,17.14 -3.17,16.87 -3.51,16.48 -3.84,16.09 -4.04,15.61 -4.23,15.13 -4.25,14.61 -4.28,14.09 -4.14,13.60 -4.01,13.10 -3.72,12.67 -3.43,12.24 -3.01,11.93 -2.60,11.62 -2.11,11.45 -1.62,11.29 -1.11,11.29 -0.59,11.29 -0.10,11.45 0.38,11.62 0.79,11.93 1.20,12.24 1.49,12.67 1.78,13.10 1.92,13.60 2.06,14.09 2.03,14.61 2.00,15.13 1.81,15.61 1.62,16.09 1.29,16.48 0.95,16.88 0.51,17.14 0.07,17.41 -0.43,17.52 -0.93,17.63 -1.45,17.57 -1.96,17.52 -2.43,17.30 -2.90,17.08 -3.28,16.73 -3.65,16.37 -3.89,15.92 -4.13,15.46 -4.22,14.95 -4.30,14.44 -4.30,14.44 -4.30,14.44 -4.28,12.92 -4.27,11.39 -4.22,10.28 -4.18,9.16 -4.13,8.02 -4.07,6.88 -3.98,5.62 -3.88,4.36 -3.55,2.71 -3.23,1.05 -2.88,0.10 -2.53,-0.84 -2.40,-1.13 -2.26,-1.42 -2.05,-1.67 -1.85,-1.92 -1.59,-2.12 -1.33,-2.31 -1.04,-2.44 -0.74,-2.57 -0.42,-2.62 -0.10,-2.67 0.21,-2.64 0.53,-2.62 0.84,-2.52 1.14,-2.41 1.41,-2.24 1.69,-2.07 1.91,-1.84 2.13,-1.60 2.30,-1.32 2.46,-1.05 2.55,-0.74 2.64,-0.43 2.65,-0.10 2.66,0.21 2.60,0.53 2.53,0.84 2.53,0.84 L 2.53,0.84 Z"></path></g></svg>