<?xml version="1.0" standalone="no"?>
<!DOCTYPE svg PUBLIC "-//W3C//DTD SVG 1.1//EN" "http://www.w3.org/Graphics/SVG/1.1/DTD/svg11.dtd">
<svg version="1.1" xmlns="http://www.w3.org/2000/svg" viewBox="0 0 97.60987147328524 92.46126910942576" width="97.60987147328524" height="92.46126910942576"><!-- svg-source:excalidraw --><metadata></metadata><defs><style class="style-fonts">
      </style></defs><rect x="0" y="0" width="97.60987147328524" height="92.46126910942576" fill="#ffffff"></rect><g stroke-linecap="round" transform="translate(25.515423489667114 7.199137177837542) rotate(324.4623222080256 22.426937719309592 38.81585374495893)"><path d="M29.02 1.66 C33.53 3.69, 39.65 11.19, 42.37 18.32 C45.09 25.45, 46.37 36.02, 45.34 44.42 C44.3 52.82, 39.79 63.09, 36.15 68.7 C32.51 74.3, 28.32 78.13, 23.5 78.03 C18.69 77.93, 11.23 73.61, 7.25 68.11 C3.28 62.62, 0.43 53.24, -0.36 45.09 C-1.15 36.93, 0.12 26.48, 2.51 19.2 C4.9 11.92, 9.08 3.74, 13.98 1.4 C18.89 -0.93, 28.42 4.27, 31.95 5.18 C35.49 6.09, 35.33 6.3, 35.18 6.87 M22 1.2 C26.59 0.65, 34.07 4.71, 37.77 9.71 C41.47 14.71, 43.52 23.1, 44.19 31.2 C44.86 39.31, 44.22 51.13, 41.8 58.35 C39.38 65.57, 33.91 71.73, 29.68 74.53 C25.44 77.32, 21.02 77.56, 16.38 75.11 C11.74 72.66, 4.49 66.78, 1.82 59.83 C-0.85 52.88, -0.6 41.97, 0.36 33.42 C1.33 24.87, 3.8 14, 7.62 8.53 C11.45 3.05, 20.78 1.94, 23.3 0.56 C25.83 -0.82, 23.03 -0.52, 22.77 0.25" stroke="#1971c2" stroke-width="1" fill="none"></path></g><g stroke-linecap="round" transform="translate(29.27417888069988 4.04201322203545) rotate(35.31121343963319 19.530756855942627 42.18862133267746)"><path d="M27.7 3.3 C31.21 6.08, 35.29 13.62, 37.03 21 C38.76 28.38, 38.66 39.21, 38.14 47.57 C37.63 55.93, 36.37 65.11, 33.95 71.18 C31.53 77.26, 27.36 82.54, 23.62 84.04 C19.87 85.53, 14.89 83.9, 11.46 80.15 C8.03 76.41, 4.78 68.88, 3.04 61.57 C1.3 54.26, 0.61 44.21, 1.03 36.28 C1.44 28.35, 3.14 19.9, 5.54 13.97 C7.95 8.04, 11.29 2.04, 15.46 0.69 C19.63 -0.67, 28.11 4.34, 30.57 5.84 C33.03 7.34, 30.62 8.95, 30.2 9.7 M11.19 1.75 C14.51 -1.48, 19.92 -0.01, 23.8 2.37 C27.67 4.75, 32 10.15, 34.41 16.04 C36.82 21.94, 37.91 29.73, 38.25 37.76 C38.59 45.78, 38.1 56.87, 36.43 64.21 C34.76 71.56, 31.93 78.89, 28.21 81.83 C24.49 84.77, 18.12 84.12, 14.12 81.86 C10.12 79.6, 6.76 74.33, 4.21 68.28 C1.67 62.22, -0.91 53.75, -1.15 45.54 C-1.39 37.33, 0.41 26.13, 2.76 19.03 C5.12 11.93, 11.62 5.47, 12.96 2.94 C14.3 0.41, 10.66 3.01, 10.8 3.85" stroke="#1971c2" stroke-width="1" fill="none"></path></g><g stroke-linecap="round" transform="translate(26.37799801733297 6.767849914004671) rotate(91.66510605810369 22.426937719309592 38.81585374495893)"><path d="M14.75 2.62 C19.27 -0.46, 26.79 0.22, 31.47 3 C36.15 5.77, 40.76 12.12, 42.86 19.25 C44.95 26.37, 44.99 37.49, 44.05 45.74 C43.1 53.99, 40.94 63.28, 37.19 68.75 C33.45 74.23, 26.53 78.56, 21.58 78.6 C16.64 78.63, 10.99 74.53, 7.52 68.95 C4.05 63.37, 1.52 53.56, 0.78 45.11 C0.04 36.66, 0.2 25.48, 3.07 18.25 C5.94 11.01, 15.45 4.58, 18 1.7 C20.55 -1.17, 18.34 0.45, 18.37 1.01 M23.33 -0.41 C27.78 -0.71, 33.23 3.97, 36.64 9.85 C40.05 15.72, 43.04 26.36, 43.77 34.84 C44.5 43.32, 43.68 54.06, 41.04 60.74 C38.41 67.42, 32.64 72.7, 27.95 74.93 C23.27 77.17, 17.22 77.42, 12.94 74.14 C8.65 70.87, 4.37 62.72, 2.23 55.3 C0.09 47.87, -1.19 37.32, 0.09 29.59 C1.37 21.85, 6.18 13.92, 9.9 8.9 C13.62 3.88, 19.88 0.69, 22.4 -0.52 C24.91 -1.73, 24.57 0.65, 24.99 1.63" stroke="#1971c2" stroke-width="1" fill="none"></path></g><g stroke-linecap="round" transform="translate(38.12825311130871 37.24869468496132) rotate(0 10.17953185238514 7.4849498914596495)"><path d="M8.32 0.2 C10.32 -0.15, 13.2 0.34, 15.07 1.05 C16.94 1.76, 18.8 3.06, 19.57 4.47 C20.34 5.88, 20.39 7.96, 19.68 9.51 C18.97 11.06, 17.15 12.8, 15.32 13.75 C13.48 14.7, 10.8 15.33, 8.69 15.22 C6.57 15.1, 4.02 14.32, 2.61 13.08 C1.19 11.83, 0.35 9.39, 0.2 7.74 C0.04 6.08, 0.31 4.35, 1.68 3.13 C3.05 1.92, 7.3 0.87, 8.41 0.46 C9.53 0.05, 8.29 0.55, 8.38 0.67 M12 0.69 C13.88 0.96, 16.51 1.9, 17.8 3.03 C19.09 4.17, 19.82 6.02, 19.72 7.51 C19.61 9, 18.55 10.69, 17.16 11.97 C15.76 13.26, 13.46 14.91, 11.34 15.23 C9.23 15.55, 6.18 14.9, 4.46 13.91 C2.75 12.91, 1.76 10.87, 1.06 9.24 C0.35 7.61, -0.41 5.5, 0.23 4.13 C0.88 2.76, 2.86 1.79, 4.94 1.04 C7.03 0.3, 11.55 -0.12, 12.74 -0.32 C13.93 -0.52, 12.12 -0.46, 12.08 -0.14" stroke="#1971c2" stroke-width="1" fill="none"></path></g></svg>